<mxfile host="app.diagrams.net" modified="2024-05-01T17:38:11.609Z" agent="Mozilla/5.0 (Windows NT 10.0; Win64; x64; rv:125.0) Gecko/20100101 Firefox/125.0" etag="MLZuhmzRbQBQsDi1VDid" version="24.3.0" type="github">
  <diagram name="brain" id="8trXX0aCvk92HbCPuqWa">
    <mxGraphModel dx="933" dy="549" grid="1" gridSize="10" guides="1" tooltips="1" connect="1" arrows="1" fold="1" page="1" pageScale="1" pageWidth="850" pageHeight="1100" math="0" shadow="0">
      <root>
        <mxCell id="0" />
        <mxCell id="1" parent="0" />
        <mxCell id="qkSMc_lfLPnd2LmG_SWH-1" value="Q" style="whiteSpace=wrap;html=1;aspect=fixed;fontSize=17;fontFamily=Verdana;fontStyle=1;fontColor=#AFB9C7;fillColor=#383E47;rounded=1;" vertex="1" parent="1">
          <mxGeometry x="95" y="112" width="40" height="40" as="geometry" />
        </mxCell>
        <mxCell id="qkSMc_lfLPnd2LmG_SWH-2" value="W" style="whiteSpace=wrap;html=1;aspect=fixed;fontSize=17;fontFamily=Verdana;fontStyle=1;fontColor=#AFB9C7;fillColor=#383E47;rounded=1;" vertex="1" parent="1">
          <mxGeometry x="135" y="85" width="40" height="40" as="geometry" />
        </mxCell>
        <mxCell id="qkSMc_lfLPnd2LmG_SWH-3" value="E" style="whiteSpace=wrap;html=1;aspect=fixed;fontSize=17;fontFamily=Verdana;fontStyle=1;fontColor=#AFB9C7;fillColor=#383E47;rounded=1;" vertex="1" parent="1">
          <mxGeometry x="175" y="70" width="40" height="40" as="geometry" />
        </mxCell>
        <mxCell id="qkSMc_lfLPnd2LmG_SWH-4" value="R" style="whiteSpace=wrap;html=1;aspect=fixed;fontSize=17;fontFamily=Verdana;fontStyle=1;fontColor=#AFB9C7;fillColor=#383E47;rounded=1;" vertex="1" parent="1">
          <mxGeometry x="215" y="85" width="40" height="40" as="geometry" />
        </mxCell>
        <mxCell id="qkSMc_lfLPnd2LmG_SWH-5" value="T" style="whiteSpace=wrap;html=1;aspect=fixed;fontSize=17;fontFamily=Verdana;fontStyle=1;fontColor=#AFB9C7;fillColor=#383E47;rounded=1;" vertex="1" parent="1">
          <mxGeometry x="255" y="93" width="40" height="40" as="geometry" />
        </mxCell>
        <mxCell id="qkSMc_lfLPnd2LmG_SWH-6" value="A&lt;br&gt;&lt;font style=&quot;font-size: 9px;&quot;&gt;(lgui)&lt;/font&gt;" style="whiteSpace=wrap;html=1;aspect=fixed;fontSize=17;fontFamily=Verdana;fontStyle=1;fontColor=#302316;fillColor=#FFB86C;rounded=1;strokeColor=#D79B00;" vertex="1" parent="1">
          <mxGeometry x="95" y="152" width="40" height="40" as="geometry" />
        </mxCell>
        <mxCell id="qkSMc_lfLPnd2LmG_SWH-7" value="&lt;div&gt;S&lt;/div&gt;&lt;font style=&quot;font-size: 9px;&quot;&gt;(&lt;/font&gt;&lt;font size=&quot;1&quot;&gt;lalt)&lt;/font&gt;" style="whiteSpace=wrap;html=1;aspect=fixed;fontSize=17;fontFamily=Verdana;fontStyle=1;fontColor=#302316;fillColor=#FFB86C;rounded=1;strokeColor=#D79B00;" vertex="1" parent="1">
          <mxGeometry x="135" y="125" width="40" height="40" as="geometry" />
        </mxCell>
        <mxCell id="qkSMc_lfLPnd2LmG_SWH-8" value="D&lt;br&gt;&lt;font style=&quot;font-size: 9px;&quot;&gt;(lshift)&lt;/font&gt;" style="whiteSpace=wrap;html=1;aspect=fixed;fontSize=17;fontFamily=Verdana;fontStyle=1;fontColor=#302316;fillColor=#FFB86C;rounded=1;strokeColor=#D79B00;" vertex="1" parent="1">
          <mxGeometry x="175" y="110" width="40" height="40" as="geometry" />
        </mxCell>
        <mxCell id="qkSMc_lfLPnd2LmG_SWH-9" value="F&lt;br&gt;&lt;div&gt;&lt;font size=&quot;1&quot;&gt;(lctrl)&lt;/font&gt;&lt;/div&gt;" style="whiteSpace=wrap;html=1;aspect=fixed;fontSize=17;fontFamily=Verdana;fontStyle=1;fontColor=#302316;fillColor=#FFB86C;rounded=1;strokeColor=#D79B00;" vertex="1" parent="1">
          <mxGeometry x="215" y="125" width="40" height="40" as="geometry" />
        </mxCell>
        <mxCell id="qkSMc_lfLPnd2LmG_SWH-10" value="G" style="whiteSpace=wrap;html=1;aspect=fixed;fontSize=17;fontFamily=Verdana;fontStyle=1;fontColor=#AFB9C7;fillColor=#383E47;rounded=1;" vertex="1" parent="1">
          <mxGeometry x="255" y="133" width="40" height="40" as="geometry" />
        </mxCell>
        <mxCell id="qkSMc_lfLPnd2LmG_SWH-11" value="Z" style="whiteSpace=wrap;html=1;aspect=fixed;fontSize=17;fontFamily=Verdana;fontStyle=1;fontColor=#AFB9C7;fillColor=#383E47;rounded=1;" vertex="1" parent="1">
          <mxGeometry x="95" y="192" width="40" height="40" as="geometry" />
        </mxCell>
        <mxCell id="qkSMc_lfLPnd2LmG_SWH-12" value="X" style="whiteSpace=wrap;html=1;aspect=fixed;fontSize=17;fontFamily=Verdana;fontStyle=1;fontColor=#AFB9C7;fillColor=#383E47;rounded=1;" vertex="1" parent="1">
          <mxGeometry x="135" y="165" width="40" height="40" as="geometry" />
        </mxCell>
        <mxCell id="qkSMc_lfLPnd2LmG_SWH-13" value="C" style="whiteSpace=wrap;html=1;aspect=fixed;fontSize=17;fontFamily=Verdana;fontStyle=1;fontColor=#AFB9C7;fillColor=#383E47;rounded=1;" vertex="1" parent="1">
          <mxGeometry x="175" y="150" width="40" height="40" as="geometry" />
        </mxCell>
        <mxCell id="qkSMc_lfLPnd2LmG_SWH-14" value="V" style="whiteSpace=wrap;html=1;aspect=fixed;fontSize=17;fontFamily=Verdana;fontStyle=1;fontColor=#AFB9C7;fillColor=#383E47;rounded=1;" vertex="1" parent="1">
          <mxGeometry x="215" y="165" width="40" height="40" as="geometry" />
        </mxCell>
        <mxCell id="qkSMc_lfLPnd2LmG_SWH-15" value="B" style="whiteSpace=wrap;html=1;aspect=fixed;fontSize=17;fontFamily=Verdana;fontStyle=1;fontColor=#AFB9C7;fillColor=#383E47;rounded=1;" vertex="1" parent="1">
          <mxGeometry x="255" y="173" width="40" height="40" as="geometry" />
        </mxCell>
        <mxCell id="qkSMc_lfLPnd2LmG_SWH-18" value="Y" style="whiteSpace=wrap;html=1;aspect=fixed;fontSize=17;fontFamily=Verdana;fontStyle=1;fontColor=#AFB9C7;fillColor=#383E47;rounded=1;" vertex="1" parent="1">
          <mxGeometry x="475" y="93" width="40" height="40" as="geometry" />
        </mxCell>
        <mxCell id="qkSMc_lfLPnd2LmG_SWH-19" value="I" style="whiteSpace=wrap;html=1;aspect=fixed;fontSize=17;fontFamily=Verdana;fontStyle=1;fontColor=#AFB9C7;fillColor=#383E47;rounded=1;" vertex="1" parent="1">
          <mxGeometry x="555" y="70" width="40" height="40" as="geometry" />
        </mxCell>
        <mxCell id="qkSMc_lfLPnd2LmG_SWH-20" value="O" style="whiteSpace=wrap;html=1;aspect=fixed;fontSize=17;fontFamily=Verdana;fontStyle=1;fontColor=#AFB9C7;fillColor=#383E47;rounded=1;" vertex="1" parent="1">
          <mxGeometry x="595" y="85" width="40" height="40" as="geometry" />
        </mxCell>
        <mxCell id="qkSMc_lfLPnd2LmG_SWH-21" value="P" style="whiteSpace=wrap;html=1;aspect=fixed;fontSize=17;fontFamily=Verdana;fontStyle=1;fontColor=#AFB9C7;fillColor=#383E47;rounded=1;" vertex="1" parent="1">
          <mxGeometry x="635" y="114" width="40" height="40" as="geometry" />
        </mxCell>
        <mxCell id="qkSMc_lfLPnd2LmG_SWH-22" value="H" style="whiteSpace=wrap;html=1;aspect=fixed;fontSize=17;fontFamily=Verdana;fontStyle=1;fontColor=#AFB9C7;fillColor=#383E47;rounded=1;" vertex="1" parent="1">
          <mxGeometry x="475" y="133" width="40" height="40" as="geometry" />
        </mxCell>
        <mxCell id="qkSMc_lfLPnd2LmG_SWH-23" value="J&lt;br&gt;&lt;font style=&quot;font-size: 9px;&quot;&gt;(rctrl)&lt;/font&gt;" style="whiteSpace=wrap;html=1;aspect=fixed;fontSize=17;fontFamily=Verdana;fontStyle=1;fontColor=#302316;fillColor=#FFB86C;rounded=1;strokeColor=#D79B00;" vertex="1" parent="1">
          <mxGeometry x="515" y="125" width="40" height="40" as="geometry" />
        </mxCell>
        <mxCell id="qkSMc_lfLPnd2LmG_SWH-24" value="K&lt;br&gt;&lt;font style=&quot;font-size: 9px;&quot;&gt;(rshift)&lt;/font&gt;" style="whiteSpace=wrap;html=1;aspect=fixed;fontSize=17;fontFamily=Verdana;fontStyle=1;fontColor=#302316;fillColor=#FFB86C;rounded=1;strokeColor=#D79B00;" vertex="1" parent="1">
          <mxGeometry x="555" y="110" width="40" height="40" as="geometry" />
        </mxCell>
        <mxCell id="qkSMc_lfLPnd2LmG_SWH-25" value="L&lt;br&gt;&lt;font style=&quot;font-size: 9px;&quot;&gt;(ralt)&lt;/font&gt;" style="whiteSpace=wrap;html=1;aspect=fixed;fontSize=17;fontFamily=Verdana;fontStyle=1;fontColor=#302316;fillColor=#FFB86C;rounded=1;strokeColor=#D79B00;" vertex="1" parent="1">
          <mxGeometry x="595" y="125" width="38" height="38" as="geometry" />
        </mxCell>
        <mxCell id="qkSMc_lfLPnd2LmG_SWH-26" value="Ö&lt;br&gt;&lt;font style=&quot;font-size: 9px;&quot;&gt;(rgui)&lt;/font&gt;" style="whiteSpace=wrap;html=1;aspect=fixed;fontSize=17;fontFamily=Verdana;fontStyle=1;fontColor=#302316;fillColor=#FFB86C;rounded=1;strokeColor=#D79B00;" vertex="1" parent="1">
          <mxGeometry x="635" y="154" width="42" height="42" as="geometry" />
        </mxCell>
        <mxCell id="qkSMc_lfLPnd2LmG_SWH-27" value="N" style="whiteSpace=wrap;html=1;aspect=fixed;fontSize=17;fontFamily=Verdana;fontStyle=1;fontColor=#AFB9C7;fillColor=#383E47;rounded=1;" vertex="1" parent="1">
          <mxGeometry x="475" y="173" width="40" height="40" as="geometry" />
        </mxCell>
        <mxCell id="qkSMc_lfLPnd2LmG_SWH-28" value="M" style="whiteSpace=wrap;html=1;aspect=fixed;fontSize=17;fontFamily=Verdana;fontStyle=1;fontColor=#AFB9C7;fillColor=#383E47;rounded=1;" vertex="1" parent="1">
          <mxGeometry x="515" y="165" width="40" height="40" as="geometry" />
        </mxCell>
        <mxCell id="qkSMc_lfLPnd2LmG_SWH-29" value="&lt;div&gt;,&lt;/div&gt;;" style="whiteSpace=wrap;html=1;aspect=fixed;fontSize=17;fontFamily=Verdana;fontStyle=1;fontColor=#AFB9C7;fillColor=#383E47;rounded=1;" vertex="1" parent="1">
          <mxGeometry x="555" y="150" width="40" height="40" as="geometry" />
        </mxCell>
        <mxCell id="qkSMc_lfLPnd2LmG_SWH-30" value="&lt;div&gt;.&lt;/div&gt;:" style="whiteSpace=wrap;html=1;aspect=fixed;fontSize=17;fontFamily=Verdana;fontStyle=1;fontColor=#AFB9C7;fillColor=#383E47;rounded=1;" vertex="1" parent="1">
          <mxGeometry x="595" y="165" width="40" height="40" as="geometry" />
        </mxCell>
        <mxCell id="qkSMc_lfLPnd2LmG_SWH-31" value="&lt;div&gt;-&lt;/div&gt;_" style="whiteSpace=wrap;html=1;aspect=fixed;fontSize=17;fontFamily=Verdana;fontStyle=1;fontColor=#AFB9C7;fillColor=#383E47;rounded=1;" vertex="1" parent="1">
          <mxGeometry x="635" y="194" width="40" height="40" as="geometry" />
        </mxCell>
        <mxCell id="qkSMc_lfLPnd2LmG_SWH-33" value="&lt;b&gt;Base&lt;/b&gt;" style="rounded=0;whiteSpace=wrap;html=1;fontFamily=Verdana;fontSize=17;fontColor=#AFB9C7;fillColor=#383E47;" vertex="1" parent="1">
          <mxGeometry x="281" y="40" width="210" height="30" as="geometry" />
        </mxCell>
        <mxCell id="qkSMc_lfLPnd2LmG_SWH-34" value="&quot;" style="whiteSpace=wrap;html=1;aspect=fixed;fontSize=17;fontFamily=Verdana;fontStyle=1;fontColor=#AFB9C7;fillColor=#383E47;rounded=1;strokeColor=default;" vertex="1" parent="1">
          <mxGeometry x="95" y="425" width="40" height="40" as="geometry" />
        </mxCell>
        <mxCell id="qkSMc_lfLPnd2LmG_SWH-35" value="@" style="whiteSpace=wrap;html=1;aspect=fixed;fontSize=17;fontFamily=Verdana;fontStyle=1;fontColor=#AFB9C7;fillColor=#383E47;rounded=1;" vertex="1" parent="1">
          <mxGeometry x="135" y="397" width="40" height="40" as="geometry" />
        </mxCell>
        <mxCell id="qkSMc_lfLPnd2LmG_SWH-36" value="=" style="whiteSpace=wrap;html=1;aspect=fixed;fontSize=17;fontFamily=Verdana;fontStyle=1;fontColor=#AFB9C7;fillColor=#383E47;rounded=1;" vertex="1" parent="1">
          <mxGeometry x="175" y="382" width="40" height="40" as="geometry" />
        </mxCell>
        <mxCell id="qkSMc_lfLPnd2LmG_SWH-37" value="&amp;amp;" style="whiteSpace=wrap;html=1;aspect=fixed;fontSize=17;fontFamily=Verdana;fontStyle=1;fontColor=#AFB9C7;fillColor=#383E47;rounded=1;" vertex="1" parent="1">
          <mxGeometry x="215" y="397" width="40" height="40" as="geometry" />
        </mxCell>
        <mxCell id="qkSMc_lfLPnd2LmG_SWH-38" value="\" style="whiteSpace=wrap;html=1;aspect=fixed;fontSize=17;fontFamily=Verdana;fontStyle=1;fontColor=#AFB9C7;fillColor=#383E47;rounded=1;" vertex="1" parent="1">
          <mxGeometry x="255" y="405" width="40" height="40" as="geometry" />
        </mxCell>
        <mxCell id="qkSMc_lfLPnd2LmG_SWH-39" value="&#39;" style="whiteSpace=wrap;html=1;aspect=fixed;fontSize=17;fontFamily=Verdana;fontStyle=1;fontColor=#302316;fillColor=#FFB86C;rounded=1;strokeColor=#D79B00;" vertex="1" parent="1">
          <mxGeometry x="95" y="465" width="40" height="40" as="geometry" />
        </mxCell>
        <mxCell id="qkSMc_lfLPnd2LmG_SWH-40" value="*" style="whiteSpace=wrap;html=1;aspect=fixed;fontSize=17;fontFamily=Verdana;fontStyle=1;fontColor=#302316;fillColor=#FFB86C;rounded=1;strokeColor=#D79B00;" vertex="1" parent="1">
          <mxGeometry x="135" y="437" width="40" height="40" as="geometry" />
        </mxCell>
        <mxCell id="qkSMc_lfLPnd2LmG_SWH-41" value="$" style="whiteSpace=wrap;html=1;aspect=fixed;fontSize=17;fontFamily=Verdana;fontStyle=1;fontColor=#302316;fillColor=#FFB86C;rounded=1;strokeColor=#D79B00;" vertex="1" parent="1">
          <mxGeometry x="175" y="422" width="40" height="40" as="geometry" />
        </mxCell>
        <mxCell id="qkSMc_lfLPnd2LmG_SWH-42" value="!" style="whiteSpace=wrap;html=1;aspect=fixed;fontSize=17;fontFamily=Verdana;fontStyle=1;fontColor=#302316;fillColor=#FFB86C;rounded=1;strokeColor=#D79B00;" vertex="1" parent="1">
          <mxGeometry x="215" y="437" width="40" height="40" as="geometry" />
        </mxCell>
        <mxCell id="qkSMc_lfLPnd2LmG_SWH-43" value="~" style="whiteSpace=wrap;html=1;aspect=fixed;fontSize=17;fontFamily=Verdana;fontStyle=1;fontColor=#AFB9C7;fillColor=#383E47;rounded=1;" vertex="1" parent="1">
          <mxGeometry x="255" y="445" width="40" height="40" as="geometry" />
        </mxCell>
        <mxCell id="qkSMc_lfLPnd2LmG_SWH-44" value="%" style="whiteSpace=wrap;html=1;aspect=fixed;fontSize=17;fontFamily=Verdana;fontStyle=1;fontColor=#AFB9C7;fillColor=#383E47;rounded=1;" vertex="1" parent="1">
          <mxGeometry x="95" y="505" width="40" height="40" as="geometry" />
        </mxCell>
        <mxCell id="qkSMc_lfLPnd2LmG_SWH-45" value="#" style="whiteSpace=wrap;html=1;aspect=fixed;fontSize=17;fontFamily=Verdana;fontStyle=1;fontColor=#AFB9C7;fillColor=#383E47;rounded=1;" vertex="1" parent="1">
          <mxGeometry x="135" y="477" width="40" height="40" as="geometry" />
        </mxCell>
        <mxCell id="qkSMc_lfLPnd2LmG_SWH-46" value="^" style="whiteSpace=wrap;html=1;aspect=fixed;fontSize=17;fontFamily=Verdana;fontStyle=1;fontColor=#AFB9C7;fillColor=#383E47;rounded=1;" vertex="1" parent="1">
          <mxGeometry x="175" y="462" width="40" height="40" as="geometry" />
        </mxCell>
        <mxCell id="qkSMc_lfLPnd2LmG_SWH-47" value="$" style="whiteSpace=wrap;html=1;aspect=fixed;fontSize=17;fontFamily=Verdana;fontStyle=1;fontColor=#AFB9C7;fillColor=#383E47;rounded=1;" vertex="1" parent="1">
          <mxGeometry x="215" y="477" width="40" height="40" as="geometry" />
        </mxCell>
        <mxCell id="qkSMc_lfLPnd2LmG_SWH-48" value="-" style="whiteSpace=wrap;html=1;aspect=fixed;fontSize=17;fontFamily=Verdana;fontStyle=1;fontColor=#AFB9C7;fillColor=#383E47;rounded=1;" vertex="1" parent="1">
          <mxGeometry x="255" y="485" width="40" height="40" as="geometry" />
        </mxCell>
        <mxCell id="qkSMc_lfLPnd2LmG_SWH-49" value="&lt;font color=&quot;#afb9c7&quot;&gt;-&lt;/font&gt;" style="whiteSpace=wrap;html=1;aspect=fixed;rotation=15;fontSize=14;fontFamily=Verdana;fontStyle=1;fontColor=#ffffff;fillColor=#383E47;strokeColor=#F0F0F0;rounded=1;" vertex="1" parent="1">
          <mxGeometry x="235" y="531" width="40" height="40" as="geometry" />
        </mxCell>
        <mxCell id="qkSMc_lfLPnd2LmG_SWH-50" value="(" style="whiteSpace=wrap;html=1;aspect=fixed;fontSize=17;fontFamily=Verdana;fontStyle=1;fontColor=#AFB9C7;fillColor=#383E47;rounded=1;" vertex="1" parent="1">
          <mxGeometry x="475" y="405" width="40" height="40" as="geometry" />
        </mxCell>
        <mxCell id="qkSMc_lfLPnd2LmG_SWH-51" value=")" style="whiteSpace=wrap;html=1;aspect=fixed;fontSize=17;fontFamily=Verdana;fontStyle=1;fontColor=#AFB9C7;fillColor=#383E47;rounded=1;" vertex="1" parent="1">
          <mxGeometry x="515" y="397" width="40" height="40" as="geometry" />
        </mxCell>
        <mxCell id="qkSMc_lfLPnd2LmG_SWH-52" value="|" style="whiteSpace=wrap;html=1;aspect=fixed;fontSize=17;fontFamily=Verdana;fontStyle=1;fontColor=#AFB9C7;fillColor=#383E47;rounded=1;" vertex="1" parent="1">
          <mxGeometry x="555" y="382" width="40" height="40" as="geometry" />
        </mxCell>
        <mxCell id="qkSMc_lfLPnd2LmG_SWH-53" value="?" style="whiteSpace=wrap;html=1;aspect=fixed;fontSize=17;fontFamily=Verdana;fontStyle=1;fontColor=#AFB9C7;fillColor=#383E47;rounded=1;" vertex="1" parent="1">
          <mxGeometry x="595" y="397" width="40" height="40" as="geometry" />
        </mxCell>
        <mxCell id="qkSMc_lfLPnd2LmG_SWH-54" value="+" style="whiteSpace=wrap;html=1;aspect=fixed;fontSize=17;fontFamily=Verdana;fontStyle=1;fontColor=#AFB9C7;fillColor=#383E47;rounded=1;" vertex="1" parent="1">
          <mxGeometry x="635" y="424" width="40" height="40" as="geometry" />
        </mxCell>
        <mxCell id="qkSMc_lfLPnd2LmG_SWH-55" value="[" style="whiteSpace=wrap;html=1;aspect=fixed;fontSize=17;fontFamily=Verdana;fontStyle=1;fontColor=#AFB9C7;fillColor=#383E47;rounded=1;" vertex="1" parent="1">
          <mxGeometry x="475" y="445" width="40" height="40" as="geometry" />
        </mxCell>
        <mxCell id="qkSMc_lfLPnd2LmG_SWH-56" value="]" style="whiteSpace=wrap;html=1;aspect=fixed;fontSize=17;fontFamily=Verdana;fontStyle=1;fontColor=#302316;fillColor=#FFB86C;rounded=1;strokeColor=#D79B00;" vertex="1" parent="1">
          <mxGeometry x="515" y="437" width="40" height="40" as="geometry" />
        </mxCell>
        <mxCell id="qkSMc_lfLPnd2LmG_SWH-57" value="=" style="whiteSpace=wrap;html=1;aspect=fixed;fontSize=17;fontFamily=Verdana;fontStyle=1;fontColor=#302316;fillColor=#FFB86C;rounded=1;strokeColor=#D79B00;" vertex="1" parent="1">
          <mxGeometry x="555" y="422" width="40" height="40" as="geometry" />
        </mxCell>
        <mxCell id="qkSMc_lfLPnd2LmG_SWH-58" value="|" style="whiteSpace=wrap;html=1;aspect=fixed;fontSize=17;fontFamily=Verdana;fontStyle=1;fontColor=#302316;fillColor=#FFB86C;rounded=1;strokeColor=#D79B00;" vertex="1" parent="1">
          <mxGeometry x="595" y="437" width="40" height="40" as="geometry" />
        </mxCell>
        <mxCell id="qkSMc_lfLPnd2LmG_SWH-59" value="-" style="whiteSpace=wrap;html=1;aspect=fixed;fontSize=17;fontFamily=Verdana;fontStyle=1;fontColor=#302316;fillColor=#FFB86C;rounded=1;strokeColor=#D79B00;" vertex="1" parent="1">
          <mxGeometry x="635" y="464" width="40" height="40" as="geometry" />
        </mxCell>
        <mxCell id="qkSMc_lfLPnd2LmG_SWH-60" value="{" style="whiteSpace=wrap;html=1;aspect=fixed;fontSize=17;fontFamily=Verdana;fontStyle=1;fontColor=#AFB9C7;fillColor=#383E47;rounded=1;" vertex="1" parent="1">
          <mxGeometry x="475" y="485" width="40" height="40" as="geometry" />
        </mxCell>
        <mxCell id="qkSMc_lfLPnd2LmG_SWH-61" value="}" style="whiteSpace=wrap;html=1;aspect=fixed;fontSize=17;fontFamily=Verdana;fontStyle=1;fontColor=#AFB9C7;fillColor=#383E47;rounded=1;" vertex="1" parent="1">
          <mxGeometry x="515" y="477" width="40" height="40" as="geometry" />
        </mxCell>
        <mxCell id="qkSMc_lfLPnd2LmG_SWH-62" value="&amp;lt;" style="whiteSpace=wrap;html=1;aspect=fixed;fontSize=17;fontFamily=Verdana;fontStyle=1;fontColor=#AFB9C7;fillColor=#383E47;rounded=1;" vertex="1" parent="1">
          <mxGeometry x="555" y="462" width="40" height="40" as="geometry" />
        </mxCell>
        <mxCell id="qkSMc_lfLPnd2LmG_SWH-63" value="&amp;gt;" style="whiteSpace=wrap;html=1;aspect=fixed;fontSize=17;fontFamily=Verdana;fontStyle=1;fontColor=#AFB9C7;fillColor=#383E47;rounded=1;" vertex="1" parent="1">
          <mxGeometry x="595" y="477" width="40" height="40" as="geometry" />
        </mxCell>
        <mxCell id="qkSMc_lfLPnd2LmG_SWH-64" value="_" style="whiteSpace=wrap;html=1;aspect=fixed;fontSize=17;fontFamily=Verdana;fontStyle=1;fontColor=#AFB9C7;fillColor=#383E47;rounded=1;" vertex="1" parent="1">
          <mxGeometry x="635" y="504" width="40" height="40" as="geometry" />
        </mxCell>
        <mxCell id="qkSMc_lfLPnd2LmG_SWH-65" value="&lt;font color=&quot;#ffffff&quot; style=&quot;font-size: 14px;&quot;&gt;&lt;br style=&quot;font-size: 14px;&quot;&gt;&lt;/font&gt;" style="whiteSpace=wrap;html=1;aspect=fixed;rotation=-15;fontSize=14;fontFamily=Verdana;fontStyle=1;fontColor=#333333;fillColor=#383E47;strokeColor=#F0F0F0;shadow=0;sketch=0;rounded=1;glass=0;labelBackgroundColor=none;" vertex="1" parent="1">
          <mxGeometry x="495" y="531" width="40" height="40" as="geometry" />
        </mxCell>
        <mxCell id="qkSMc_lfLPnd2LmG_SWH-66" value="&lt;b&gt;fnc/nav&lt;/b&gt;" style="rounded=0;whiteSpace=wrap;html=1;fontFamily=Verdana;fontSize=17;fillColor=#1ba1e2;strokeColor=#006EAF;fontStyle=0;fontColor=#ffffff;" vertex="1" parent="1">
          <mxGeometry x="281" y="680" width="210" height="30" as="geometry" />
        </mxCell>
        <mxCell id="qkSMc_lfLPnd2LmG_SWH-67" value="F1" style="whiteSpace=wrap;html=1;aspect=fixed;fontSize=11;fontFamily=Verdana;fontStyle=1;fontColor=#AFB9C7;fillColor=#383E47;rounded=1;" vertex="1" parent="1">
          <mxGeometry x="95" y="752" width="40" height="40" as="geometry" />
        </mxCell>
        <mxCell id="qkSMc_lfLPnd2LmG_SWH-68" value="F5" style="whiteSpace=wrap;html=1;aspect=fixed;fontSize=14;fontFamily=Verdana;fontStyle=1;fontColor=#AFB9C7;fillColor=#383E47;rounded=1;" vertex="1" parent="1">
          <mxGeometry x="255" y="733" width="40" height="40" as="geometry" />
        </mxCell>
        <mxCell id="qkSMc_lfLPnd2LmG_SWH-69" value="F2" style="whiteSpace=wrap;html=1;aspect=fixed;fontSize=14;fontFamily=Verdana;fontStyle=1;fontColor=#AFB9C7;fillColor=#383E47;rounded=1;" vertex="1" parent="1">
          <mxGeometry x="135" y="723" width="40" height="40" as="geometry" />
        </mxCell>
        <mxCell id="qkSMc_lfLPnd2LmG_SWH-70" value="F3" style="whiteSpace=wrap;html=1;aspect=fixed;fontSize=14;fontFamily=Verdana;fontStyle=1;fontColor=#AFB9C7;fillColor=#383E47;rounded=1;" vertex="1" parent="1">
          <mxGeometry x="174.5" y="710" width="40" height="40" as="geometry" />
        </mxCell>
        <mxCell id="qkSMc_lfLPnd2LmG_SWH-71" value="F4" style="whiteSpace=wrap;html=1;aspect=fixed;fontSize=14;fontFamily=Verdana;fontStyle=1;fontColor=#AFB9C7;fillColor=#383E47;rounded=1;" vertex="1" parent="1">
          <mxGeometry x="214.5" y="723" width="40" height="40" as="geometry" />
        </mxCell>
        <mxCell id="qkSMc_lfLPnd2LmG_SWH-72" value="F7" style="whiteSpace=wrap;html=1;aspect=fixed;fontSize=14;fontFamily=Verdana;fontStyle=1;fontColor=#302316;fillColor=#FFB86C;rounded=1;strokeColor=#D79B00;" vertex="1" parent="1">
          <mxGeometry x="135" y="765" width="40" height="40" as="geometry" />
        </mxCell>
        <mxCell id="qkSMc_lfLPnd2LmG_SWH-73" value="F8" style="whiteSpace=wrap;html=1;aspect=fixed;fontSize=14;fontFamily=Verdana;fontStyle=1;fontColor=#302316;fillColor=#FFB86C;rounded=1;strokeColor=#D79B00;" vertex="1" parent="1">
          <mxGeometry x="175" y="750" width="40" height="40" as="geometry" />
        </mxCell>
        <mxCell id="qkSMc_lfLPnd2LmG_SWH-74" value="F9" style="whiteSpace=wrap;html=1;aspect=fixed;fontSize=14;fontFamily=Verdana;fontStyle=1;fontColor=#302316;fillColor=#FFB86C;rounded=1;strokeColor=#D79B00;" vertex="1" parent="1">
          <mxGeometry x="215" y="765" width="40" height="40" as="geometry" />
        </mxCell>
        <mxCell id="qkSMc_lfLPnd2LmG_SWH-75" value="F10" style="whiteSpace=wrap;html=1;aspect=fixed;fontSize=14;fontFamily=Verdana;fontStyle=1;fontColor=#AFB9C7;fillColor=#383E47;rounded=1;" vertex="1" parent="1">
          <mxGeometry x="255" y="773" width="40" height="40" as="geometry" />
        </mxCell>
        <mxCell id="qkSMc_lfLPnd2LmG_SWH-76" value="F11" style="whiteSpace=wrap;html=1;aspect=fixed;fontSize=11;fontFamily=Verdana;fontStyle=1;fontColor=#AFB9C7;fillColor=#383E47;rounded=1;" vertex="1" parent="1">
          <mxGeometry x="95" y="832" width="40" height="40" as="geometry" />
        </mxCell>
        <mxCell id="qkSMc_lfLPnd2LmG_SWH-77" value="F12" style="whiteSpace=wrap;html=1;aspect=fixed;fontSize=14;fontFamily=Verdana;fontStyle=1;fontColor=#AFB9C7;fillColor=#383E47;rounded=1;" vertex="1" parent="1">
          <mxGeometry x="135" y="805" width="40" height="40" as="geometry" />
        </mxCell>
        <mxCell id="qkSMc_lfLPnd2LmG_SWH-78" value="" style="whiteSpace=wrap;html=1;aspect=fixed;fontSize=14;fontFamily=Verdana;fontStyle=1;fontColor=#AFB9C7;fillColor=#383E47;rounded=1;" vertex="1" parent="1">
          <mxGeometry x="175" y="790" width="40" height="40" as="geometry" />
        </mxCell>
        <mxCell id="qkSMc_lfLPnd2LmG_SWH-79" value="" style="whiteSpace=wrap;html=1;aspect=fixed;fontSize=14;fontFamily=Verdana;fontStyle=1;fontColor=#AFB9C7;fillColor=#383E47;rounded=1;" vertex="1" parent="1">
          <mxGeometry x="215" y="805" width="40" height="40" as="geometry" />
        </mxCell>
        <mxCell id="qkSMc_lfLPnd2LmG_SWH-80" value="" style="whiteSpace=wrap;html=1;aspect=fixed;fontSize=14;fontFamily=Verdana;fontStyle=1;fontColor=#AFB9C7;fillColor=#383E47;rounded=1;" vertex="1" parent="1">
          <mxGeometry x="255" y="813" width="40" height="40" as="geometry" />
        </mxCell>
        <mxCell id="qkSMc_lfLPnd2LmG_SWH-81" value="&lt;div&gt;&lt;font&gt;Spc&lt;/font&gt;&lt;/div&gt;&lt;div&gt;&lt;span style=&quot;font-family: &amp;quot;segoe ui emoji&amp;quot;, &amp;quot;apple color emoji&amp;quot;, &amp;quot;noto color emoji&amp;quot;; font-size: 14px;&quot;&gt;&lt;/span&gt;&lt;/div&gt;&lt;div&gt;&lt;span style=&quot;font-family: &amp;quot;segoe ui emoji&amp;quot;, &amp;quot;apple color emoji&amp;quot;, &amp;quot;noto color emoji&amp;quot;; font-size: 14px;&quot;&gt;&lt;/span&gt;&lt;/div&gt;" style="whiteSpace=wrap;html=1;aspect=fixed;rotation=30;fontSize=14;fontFamily=Verdana;fontStyle=1;fontColor=#AFB9C7;fillColor=#383E47;rounded=1;strokeColor=#F0F0F0;" vertex="1" parent="1">
          <mxGeometry x="283" y="877" width="40" height="40" as="geometry" />
        </mxCell>
        <mxCell id="qkSMc_lfLPnd2LmG_SWH-82" value="home" style="whiteSpace=wrap;html=1;aspect=fixed;fontSize=11;fontFamily=Verdana;fontStyle=1;fontColor=#AFB9C7;fillColor=#383E47;rounded=1;" vertex="1" parent="1">
          <mxGeometry x="475" y="733" width="40" height="40" as="geometry" />
        </mxCell>
        <mxCell id="qkSMc_lfLPnd2LmG_SWH-83" value="Pag&lt;br&gt;up" style="whiteSpace=wrap;html=1;aspect=fixed;fontSize=11;fontFamily=Verdana;fontStyle=1;fontColor=#AFB9C7;fillColor=#383E47;rounded=1;" vertex="1" parent="1">
          <mxGeometry x="515" y="725" width="40" height="40" as="geometry" />
        </mxCell>
        <mxCell id="qkSMc_lfLPnd2LmG_SWH-84" value="&lt;span style=&quot;font-family: &amp;quot;segoe ui emoji&amp;quot;, &amp;quot;apple color emoji&amp;quot;, &amp;quot;noto color emoji&amp;quot;; font-size: 16px;&quot;&gt;↑&lt;/span&gt;" style="whiteSpace=wrap;html=1;aspect=fixed;fontSize=16;fontFamily=Verdana;fontStyle=1;fontColor=#AFB9C7;fillColor=#383E47;rounded=1;" vertex="1" parent="1">
          <mxGeometry x="555" y="710" width="40" height="40" as="geometry" />
        </mxCell>
        <mxCell id="qkSMc_lfLPnd2LmG_SWH-85" value="Pag&lt;br&gt;down" style="whiteSpace=wrap;html=1;aspect=fixed;fontSize=11;fontFamily=Verdana;fontStyle=1;fontColor=#AFB9C7;fillColor=#383E47;rounded=1;" vertex="1" parent="1">
          <mxGeometry x="595" y="725" width="40" height="40" as="geometry" />
        </mxCell>
        <mxCell id="qkSMc_lfLPnd2LmG_SWH-86" value="&lt;div&gt;Print&lt;/div&gt;&lt;div&gt;screen&lt;br&gt;&lt;/div&gt;" style="whiteSpace=wrap;html=1;aspect=fixed;fontSize=11;fontFamily=Verdana;fontStyle=1;fontColor=#AFB9C7;fillColor=#383E47;rounded=1;" vertex="1" parent="1">
          <mxGeometry x="635" y="752" width="40" height="40" as="geometry" />
        </mxCell>
        <mxCell id="qkSMc_lfLPnd2LmG_SWH-87" value="end" style="whiteSpace=wrap;html=1;aspect=fixed;fontSize=11;fontFamily=Verdana;fontStyle=1;fontColor=#AFB9C7;fillColor=#383E47;rounded=1;" vertex="1" parent="1">
          <mxGeometry x="475" y="773" width="40" height="40" as="geometry" />
        </mxCell>
        <mxCell id="qkSMc_lfLPnd2LmG_SWH-88" value="&lt;span style=&quot;font-family: &amp;quot;segoe ui emoji&amp;quot;, &amp;quot;apple color emoji&amp;quot;, &amp;quot;noto color emoji&amp;quot;; font-size: 16px;&quot;&gt;←&lt;/span&gt;" style="whiteSpace=wrap;html=1;aspect=fixed;fontSize=16;fontFamily=Verdana;fontStyle=1;fontColor=#AFB9C7;fillColor=#383E47;rounded=1;" vertex="1" parent="1">
          <mxGeometry x="515" y="765" width="40" height="40" as="geometry" />
        </mxCell>
        <mxCell id="qkSMc_lfLPnd2LmG_SWH-89" value="&lt;span style=&quot;font-family: &amp;quot;segoe ui emoji&amp;quot;, &amp;quot;apple color emoji&amp;quot;, &amp;quot;noto color emoji&amp;quot;; font-size: 16px;&quot;&gt;↓&lt;/span&gt;" style="whiteSpace=wrap;html=1;aspect=fixed;fontSize=16;fontFamily=Verdana;fontStyle=1;fontColor=#AFB9C7;fillColor=#383E47;rounded=1;" vertex="1" parent="1">
          <mxGeometry x="555" y="750" width="40" height="40" as="geometry" />
        </mxCell>
        <mxCell id="qkSMc_lfLPnd2LmG_SWH-90" value="&lt;span style=&quot;font-family: &amp;quot;segoe ui emoji&amp;quot;, &amp;quot;apple color emoji&amp;quot;, &amp;quot;noto color emoji&amp;quot;; font-size: 16px;&quot;&gt;→&lt;/span&gt;" style="whiteSpace=wrap;html=1;aspect=fixed;fontSize=16;fontFamily=Verdana;fontStyle=1;fontColor=#AFB9C7;fillColor=#383E47;rounded=1;" vertex="1" parent="1">
          <mxGeometry x="595" y="765" width="40" height="40" as="geometry" />
        </mxCell>
        <mxCell id="qkSMc_lfLPnd2LmG_SWH-91" value="" style="whiteSpace=wrap;html=1;aspect=fixed;fontSize=11;fontFamily=Verdana;fontStyle=1;fontColor=#AFB9C7;fillColor=#383E47;rounded=1;" vertex="1" parent="1">
          <mxGeometry x="635" y="792" width="40" height="40" as="geometry" />
        </mxCell>
        <mxCell id="qkSMc_lfLPnd2LmG_SWH-92" value="" style="whiteSpace=wrap;html=1;aspect=fixed;fontSize=17;fontFamily=Verdana;fontStyle=1;fontColor=#AFB9C7;fillColor=#383E47;rounded=1;" vertex="1" parent="1">
          <mxGeometry x="474.5" y="813" width="40" height="40" as="geometry" />
        </mxCell>
        <mxCell id="qkSMc_lfLPnd2LmG_SWH-93" value="Prev&lt;br&gt;track" style="whiteSpace=wrap;html=1;aspect=fixed;fontSize=11;fontFamily=Verdana;fontStyle=1;fontColor=#AFB9C7;fillColor=#383E47;rounded=1;" vertex="1" parent="1">
          <mxGeometry x="515" y="805" width="40" height="40" as="geometry" />
        </mxCell>
        <mxCell id="qkSMc_lfLPnd2LmG_SWH-94" value="play/&lt;br style=&quot;font-size: 11px;&quot;&gt;&lt;span style=&quot;font-size: 11px;&quot;&gt;pause&lt;/span&gt;" style="whiteSpace=wrap;html=1;aspect=fixed;fontSize=11;fontFamily=Verdana;fontStyle=1;fontColor=#AFB9C7;fillColor=#383E47;rounded=1;" vertex="1" parent="1">
          <mxGeometry x="555" y="790" width="40" height="40" as="geometry" />
        </mxCell>
        <mxCell id="qkSMc_lfLPnd2LmG_SWH-95" value="&lt;font style=&quot;font-size: 11px;&quot;&gt;next&lt;br&gt;track&lt;/font&gt;" style="whiteSpace=wrap;html=1;aspect=fixed;fontSize=17;fontFamily=Verdana;fontStyle=1;fontColor=#AFB9C7;fillColor=#383E47;rounded=1;" vertex="1" parent="1">
          <mxGeometry x="595" y="805" width="40" height="40" as="geometry" />
        </mxCell>
        <mxCell id="qkSMc_lfLPnd2LmG_SWH-96" value="mute" style="whiteSpace=wrap;html=1;aspect=fixed;fontSize=11;fontFamily=Verdana;fontStyle=1;fontColor=#AFB9C7;fillColor=#383E47;rounded=1;" vertex="1" parent="1">
          <mxGeometry x="635" y="832" width="40" height="40" as="geometry" />
        </mxCell>
        <mxCell id="qkSMc_lfLPnd2LmG_SWH-97" value="" style="whiteSpace=wrap;html=1;aspect=fixed;rotation=-30;fontSize=17;fontFamily=Verdana;fontStyle=1;fontColor=#AFB9C7;fillColor=#383E47;rounded=1;strokeColor=default;" vertex="1" parent="1">
          <mxGeometry x="447" y="877" width="40" height="40" as="geometry" />
        </mxCell>
        <mxCell id="qkSMc_lfLPnd2LmG_SWH-98" value="fnc&lt;br style=&quot;font-size: 14px;&quot;&gt;nav" style="whiteSpace=wrap;html=1;aspect=fixed;rotation=-15;fontSize=14;fontFamily=Verdana;fontStyle=1;fontColor=#AFB9C7;fillColor=#383E47;strokeColor=#F0F0F0;rounded=1;dashed=1;" vertex="1" parent="1">
          <mxGeometry x="495" y="859" width="40" height="40" as="geometry" />
        </mxCell>
        <mxCell id="qkSMc_lfLPnd2LmG_SWH-99" value="sym" style="rounded=0;whiteSpace=wrap;html=1;fontFamily=Verdana;fontSize=17;fontStyle=1;fillColor=#a20025;strokeColor=#6F0000;fontColor=#ffffff;" vertex="1" parent="1">
          <mxGeometry x="281" y="352" width="210" height="30" as="geometry" />
        </mxCell>
        <mxCell id="qkSMc_lfLPnd2LmG_SWH-100" style="edgeStyle=orthogonalEdgeStyle;rounded=1;orthogonalLoop=1;jettySize=auto;html=1;exitX=0.5;exitY=1;exitDx=0;exitDy=0;fontFamily=Verdana;fontSize=14;fontColor=#3399FF;strokeColor=#FF8000;" edge="1" parent="1">
          <mxGeometry relative="1" as="geometry">
            <mxPoint x="155.49999999999977" y="950" as="sourcePoint" />
            <mxPoint x="155.49999999999977" y="950" as="targetPoint" />
          </mxGeometry>
        </mxCell>
        <mxCell id="qkSMc_lfLPnd2LmG_SWH-101" style="edgeStyle=orthogonalEdgeStyle;rounded=1;orthogonalLoop=1;jettySize=auto;html=1;fontSize=11;strokeColor=#6C8EBF;entryX=0.5;entryY=0;entryDx=0;entryDy=0;" edge="1" parent="1" source="qkSMc_lfLPnd2LmG_SWH-136" target="qkSMc_lfLPnd2LmG_SWH-165">
          <mxGeometry relative="1" as="geometry" />
        </mxCell>
        <mxCell id="qkSMc_lfLPnd2LmG_SWH-102" value="&lt;font style=&quot;font-size: 11px;&quot;&gt;Bootloader&lt;br&gt;(flash new firmware)&lt;/font&gt;" style="text;html=1;strokeColor=none;fillColor=none;align=center;verticalAlign=middle;whiteSpace=wrap;rounded=0;shadow=0;glass=0;sketch=0;fontFamily=Verdana;fontSize=14;fontColor=#3399FF;" vertex="1" parent="1">
          <mxGeometry x="326" y="1470" width="120" height="40" as="geometry" />
        </mxCell>
        <mxCell id="qkSMc_lfLPnd2LmG_SWH-103" value="U" style="whiteSpace=wrap;html=1;aspect=fixed;fontSize=17;fontFamily=Verdana;fontStyle=1;fontColor=#AFB9C7;fillColor=#383E47;rounded=1;" vertex="1" parent="1">
          <mxGeometry x="515" y="85" width="40" height="40" as="geometry" />
        </mxCell>
        <mxCell id="qkSMc_lfLPnd2LmG_SWH-104" value="1" style="whiteSpace=wrap;html=1;aspect=fixed;fontSize=17;fontFamily=Verdana;fontStyle=1;fontColor=#AFB9C7;fillColor=#383E47;rounded=1;" vertex="1" parent="1">
          <mxGeometry x="94.5" y="1077" width="40" height="40" as="geometry" />
        </mxCell>
        <mxCell id="qkSMc_lfLPnd2LmG_SWH-105" value="2" style="whiteSpace=wrap;html=1;aspect=fixed;fontSize=17;fontFamily=Verdana;fontStyle=1;fontColor=#AFB9C7;fillColor=#383E47;rounded=1;" vertex="1" parent="1">
          <mxGeometry x="134.5" y="1050" width="40" height="40" as="geometry" />
        </mxCell>
        <mxCell id="qkSMc_lfLPnd2LmG_SWH-106" value="3" style="whiteSpace=wrap;html=1;aspect=fixed;fontSize=17;fontFamily=Verdana;fontStyle=1;fontColor=#AFB9C7;fillColor=#383E47;rounded=1;" vertex="1" parent="1">
          <mxGeometry x="175" y="1035" width="40" height="40" as="geometry" />
        </mxCell>
        <mxCell id="qkSMc_lfLPnd2LmG_SWH-107" value="4" style="whiteSpace=wrap;html=1;aspect=fixed;fontSize=17;fontFamily=Verdana;fontStyle=1;fontColor=#AFB9C7;fillColor=#383E47;rounded=1;" vertex="1" parent="1">
          <mxGeometry x="215" y="1050" width="40" height="40" as="geometry" />
        </mxCell>
        <mxCell id="qkSMc_lfLPnd2LmG_SWH-108" value="5" style="whiteSpace=wrap;html=1;aspect=fixed;fontSize=17;fontFamily=Verdana;fontStyle=1;fontColor=#AFB9C7;fillColor=#383E47;rounded=1;" vertex="1" parent="1">
          <mxGeometry x="255" y="1058" width="40" height="40" as="geometry" />
        </mxCell>
        <mxCell id="qkSMc_lfLPnd2LmG_SWH-109" value="9" style="whiteSpace=wrap;html=1;aspect=fixed;fontSize=17;fontFamily=Verdana;fontStyle=1;fontColor=#000000;fillColor=#FFB366;rounded=1;strokeColor=#D79B00;" vertex="1" parent="1">
          <mxGeometry x="215" y="1090" width="40" height="40" as="geometry" />
        </mxCell>
        <mxCell id="qkSMc_lfLPnd2LmG_SWH-110" value="&lt;font color=&quot;#AFB9C7&quot;&gt;0&lt;/font&gt;" style="whiteSpace=wrap;html=1;aspect=fixed;fontSize=17;fontFamily=Verdana;fontStyle=1;fontColor=#AFB9C7;fillColor=#383E47;rounded=1;" vertex="1" parent="1">
          <mxGeometry x="255" y="1098" width="40" height="40" as="geometry" />
        </mxCell>
        <mxCell id="qkSMc_lfLPnd2LmG_SWH-111" value="" style="whiteSpace=wrap;html=1;aspect=fixed;fontSize=17;fontFamily=Verdana;fontStyle=1;fontColor=#AFB9C7;fillColor=#383E47;rounded=1;" vertex="1" parent="1">
          <mxGeometry x="135" y="1130" width="40" height="40" as="geometry" />
        </mxCell>
        <mxCell id="qkSMc_lfLPnd2LmG_SWH-112" value="" style="whiteSpace=wrap;html=1;aspect=fixed;fontSize=14;fontFamily=Verdana;fontStyle=1;fontColor=#AFB9C7;fillColor=#383E47;rounded=1;" vertex="1" parent="1">
          <mxGeometry x="175" y="1115" width="40" height="40" as="geometry" />
        </mxCell>
        <mxCell id="qkSMc_lfLPnd2LmG_SWH-113" value="" style="whiteSpace=wrap;html=1;aspect=fixed;fontSize=17;fontFamily=Verdana;fontStyle=1;fontColor=#AFB9C7;fillColor=#383E47;rounded=1;" vertex="1" parent="1">
          <mxGeometry x="215" y="1130" width="40" height="40" as="geometry" />
        </mxCell>
        <mxCell id="qkSMc_lfLPnd2LmG_SWH-114" value="=" style="whiteSpace=wrap;html=1;aspect=fixed;fontSize=17;fontFamily=Verdana;fontStyle=1;fontColor=#AFB9C7;fillColor=#383E47;rounded=1;" vertex="1" parent="1">
          <mxGeometry x="255" y="1138" width="40" height="40" as="geometry" />
        </mxCell>
        <mxCell id="qkSMc_lfLPnd2LmG_SWH-115" value="num" style="whiteSpace=wrap;html=1;aspect=fixed;rotation=15;fontSize=14;fontFamily=Verdana;fontStyle=1;fontColor=#FFFFFF;fillColor=none;rounded=1;strokeColor=#F0F0F0;dashed=1;" vertex="1" parent="1">
          <mxGeometry x="235" y="1184" width="40" height="40" as="geometry" />
        </mxCell>
        <mxCell id="qkSMc_lfLPnd2LmG_SWH-116" value="Spc" style="whiteSpace=wrap;html=1;aspect=fixed;rotation=30;fontSize=14;fontFamily=Verdana;fontStyle=1;fontColor=#AFB9C7;fillColor=#383E47;rounded=1;strokeColor=#F0F0F0;" vertex="1" parent="1">
          <mxGeometry x="283" y="1202" width="40" height="40" as="geometry" />
        </mxCell>
        <mxCell id="qkSMc_lfLPnd2LmG_SWH-117" value="6" style="whiteSpace=wrap;html=1;aspect=fixed;fontSize=17;fontFamily=Verdana;fontStyle=1;fontColor=#AFB9C7;fillColor=#383E47;rounded=1;" vertex="1" parent="1">
          <mxGeometry x="475" y="1058" width="40" height="40" as="geometry" />
        </mxCell>
        <mxCell id="qkSMc_lfLPnd2LmG_SWH-118" value="7" style="whiteSpace=wrap;html=1;aspect=fixed;fontSize=17;fontFamily=Verdana;fontStyle=1;fontColor=#AFB9C7;fillColor=#383E47;rounded=1;" vertex="1" parent="1">
          <mxGeometry x="515" y="1050" width="40" height="40" as="geometry" />
        </mxCell>
        <mxCell id="qkSMc_lfLPnd2LmG_SWH-119" value="8" style="whiteSpace=wrap;html=1;aspect=fixed;fontSize=17;fontFamily=Verdana;fontStyle=1;fontColor=#AFB9C7;fillColor=#383E47;rounded=1;" vertex="1" parent="1">
          <mxGeometry x="555" y="1035" width="40" height="40" as="geometry" />
        </mxCell>
        <mxCell id="qkSMc_lfLPnd2LmG_SWH-120" value="9" style="whiteSpace=wrap;html=1;aspect=fixed;fontSize=17;fontFamily=Verdana;fontStyle=1;fontColor=#AFB9C7;fillColor=#383E47;rounded=1;" vertex="1" parent="1">
          <mxGeometry x="595" y="1050" width="40" height="40" as="geometry" />
        </mxCell>
        <mxCell id="qkSMc_lfLPnd2LmG_SWH-121" value="0" style="whiteSpace=wrap;html=1;aspect=fixed;fontSize=17;fontFamily=Verdana;fontStyle=1;fontColor=#AFB9C7;fillColor=#383E47;rounded=1;" vertex="1" parent="1">
          <mxGeometry x="635" y="1077" width="40" height="40" as="geometry" />
        </mxCell>
        <mxCell id="qkSMc_lfLPnd2LmG_SWH-122" value="-" style="whiteSpace=wrap;html=1;aspect=fixed;fontSize=17;fontFamily=Verdana;fontStyle=1;fontColor=#AFB9C7;fillColor=#383E47;rounded=1;" vertex="1" parent="1">
          <mxGeometry x="475" y="1098" width="40" height="40" as="geometry" />
        </mxCell>
        <mxCell id="qkSMc_lfLPnd2LmG_SWH-123" value="4" style="whiteSpace=wrap;html=1;aspect=fixed;fontSize=17;fontFamily=Verdana;fontStyle=1;fontColor=#000000;fillColor=#FFB366;rounded=1;strokeColor=#D79B00;" vertex="1" parent="1">
          <mxGeometry x="515" y="1090" width="40" height="40" as="geometry" />
        </mxCell>
        <mxCell id="qkSMc_lfLPnd2LmG_SWH-124" value="5" style="whiteSpace=wrap;html=1;aspect=fixed;fontSize=17;fontFamily=Verdana;fontStyle=1;fontColor=#000000;fillColor=#FFB366;rounded=1;strokeColor=#D79B00;" vertex="1" parent="1">
          <mxGeometry x="555" y="1075" width="40" height="40" as="geometry" />
        </mxCell>
        <mxCell id="qkSMc_lfLPnd2LmG_SWH-125" value="6" style="whiteSpace=wrap;html=1;aspect=fixed;fontSize=17;fontFamily=Verdana;fontStyle=1;fontColor=#000000;fillColor=#FFB366;rounded=1;strokeColor=#D79B00;" vertex="1" parent="1">
          <mxGeometry x="594.5" y="1090" width="40" height="40" as="geometry" />
        </mxCell>
        <mxCell id="qkSMc_lfLPnd2LmG_SWH-126" value="," style="whiteSpace=wrap;html=1;aspect=fixed;fontSize=17;fontFamily=Verdana;fontStyle=1;fontColor=#000000;fillColor=#FFB366;rounded=1;strokeColor=#D79B00;" vertex="1" parent="1">
          <mxGeometry x="635" y="1117" width="40" height="40" as="geometry" />
        </mxCell>
        <mxCell id="qkSMc_lfLPnd2LmG_SWH-127" value="+" style="whiteSpace=wrap;html=1;aspect=fixed;fontSize=14;fontFamily=Verdana;fontStyle=1;fontColor=#AFB9C7;fillColor=#383E47;rounded=1;" vertex="1" parent="1">
          <mxGeometry x="474.5" y="1138" width="40" height="40" as="geometry" />
        </mxCell>
        <mxCell id="qkSMc_lfLPnd2LmG_SWH-128" value="1" style="whiteSpace=wrap;html=1;aspect=fixed;fontSize=17;fontFamily=Verdana;fontStyle=1;fontColor=#AFB9C7;fillColor=#383E47;rounded=1;" vertex="1" parent="1">
          <mxGeometry x="515" y="1130" width="40" height="40" as="geometry" />
        </mxCell>
        <mxCell id="qkSMc_lfLPnd2LmG_SWH-129" value="2" style="whiteSpace=wrap;html=1;aspect=fixed;fontSize=17;fontFamily=Verdana;fontStyle=1;fontColor=#AFB9C7;fillColor=#383E47;rounded=1;" vertex="1" parent="1">
          <mxGeometry x="555" y="1115" width="40" height="40" as="geometry" />
        </mxCell>
        <mxCell id="qkSMc_lfLPnd2LmG_SWH-130" value="3" style="whiteSpace=wrap;html=1;aspect=fixed;fontSize=17;fontFamily=Verdana;fontStyle=1;fontColor=#AFB9C7;fillColor=#383E47;rounded=1;" vertex="1" parent="1">
          <mxGeometry x="595" y="1130" width="40" height="40" as="geometry" />
        </mxCell>
        <mxCell id="qkSMc_lfLPnd2LmG_SWH-131" value="," style="whiteSpace=wrap;html=1;aspect=fixed;fontSize=17;fontFamily=Verdana;fontStyle=1;fontColor=#AFB9C7;fillColor=#383E47;rounded=1;" vertex="1" parent="1">
          <mxGeometry x="635" y="1157" width="40" height="40" as="geometry" />
        </mxCell>
        <mxCell id="qkSMc_lfLPnd2LmG_SWH-132" value="bs" style="whiteSpace=wrap;html=1;aspect=fixed;rotation=-30;fontSize=17;fontFamily=Verdana;fontStyle=1;fontColor=#AFB9C7;fillColor=#383E47;strokeColor=#F0F0F0;rounded=1;shadow=0;glass=0;sketch=0;" vertex="1" parent="1">
          <mxGeometry x="447" y="1202" width="40" height="40" as="geometry" />
        </mxCell>
        <mxCell id="qkSMc_lfLPnd2LmG_SWH-133" value="0" style="whiteSpace=wrap;html=1;aspect=fixed;rotation=-15;fontSize=17;fontFamily=Verdana;fontStyle=1;fontColor=#AFB9C7;fillColor=#383E47;strokeColor=#F0F0F0;rounded=1;shadow=0;glass=0;sketch=0;" vertex="1" parent="1">
          <mxGeometry x="495" y="1184" width="40" height="40" as="geometry" />
        </mxCell>
        <mxCell id="qkSMc_lfLPnd2LmG_SWH-134" value="num" style="rounded=0;whiteSpace=wrap;html=1;fontFamily=Verdana;fontSize=17;fontStyle=1;fillColor=#6A00FF;strokeColor=#3700CC;fontColor=#ffffff;" vertex="1" parent="1">
          <mxGeometry x="284.5" y="1005" width="210" height="30" as="geometry" />
        </mxCell>
        <mxCell id="qkSMc_lfLPnd2LmG_SWH-135" value="F6" style="whiteSpace=wrap;html=1;aspect=fixed;fontSize=14;fontFamily=Verdana;fontStyle=1;fontColor=#302316;fillColor=#FFB86C;rounded=1;strokeColor=#D79B00;" vertex="1" parent="1">
          <mxGeometry x="95" y="792" width="40" height="40" as="geometry" />
        </mxCell>
        <mxCell id="qkSMc_lfLPnd2LmG_SWH-136" value="&lt;font style=&quot;font-size: 11px;&quot;&gt;Select &lt;br&gt;BlueTooth&lt;br&gt;profile&lt;/font&gt;" style="text;html=1;strokeColor=none;fillColor=none;align=center;verticalAlign=middle;whiteSpace=wrap;rounded=0;shadow=0;glass=0;sketch=0;fontFamily=Verdana;fontSize=14;fontColor=#3399FF;" vertex="1" parent="1">
          <mxGeometry x="160" y="1295" width="70" height="50" as="geometry" />
        </mxCell>
        <mxCell id="qkSMc_lfLPnd2LmG_SWH-137" style="edgeStyle=orthogonalEdgeStyle;rounded=1;orthogonalLoop=1;jettySize=auto;html=1;entryX=0;entryY=0;entryDx=0;entryDy=0;fontSize=14;fontColor=#FFFFFF;strokeColor=#6C8EBF;" edge="1" parent="1" target="qkSMc_lfLPnd2LmG_SWH-198">
          <mxGeometry relative="1" as="geometry">
            <mxPoint x="82" y="1383" as="sourcePoint" />
            <Array as="points">
              <mxPoint x="82" y="1458" />
            </Array>
          </mxGeometry>
        </mxCell>
        <mxCell id="qkSMc_lfLPnd2LmG_SWH-138" value="&lt;span style=&quot;font-size: 11px;&quot;&gt;unpair the current &lt;br&gt;BT profile&lt;/span&gt;" style="text;html=1;strokeColor=none;fillColor=none;align=center;verticalAlign=middle;whiteSpace=wrap;rounded=0;shadow=0;glass=0;sketch=0;fontFamily=Verdana;fontSize=14;fontColor=#3399FF;" vertex="1" parent="1">
          <mxGeometry x="54.5" y="1340" width="111" height="40" as="geometry" />
        </mxCell>
        <mxCell id="qkSMc_lfLPnd2LmG_SWH-154" value="&lt;div style=&quot;font-size: 11px;&quot;&gt;tab/lgui&lt;/div&gt;(num)" style="whiteSpace=wrap;html=1;aspect=fixed;rotation=0;fontSize=11;fontFamily=Verdana;fontStyle=1;fillColor=#6A00FF;strokeColor=#3700CC;fontColor=#ffffff;rounded=1;" vertex="1" parent="1">
          <mxGeometry x="850" y="284" width="42" height="42" as="geometry" />
        </mxCell>
        <mxCell id="qkSMc_lfLPnd2LmG_SWH-155" value="Spc" style="whiteSpace=wrap;html=1;aspect=fixed;rotation=30;fontSize=14;fontFamily=Verdana;fontStyle=1;fontColor=#AFB9C7;fillColor=#383E47;rounded=1;align=center;verticalAlign=middle;strokeColor=#AFB9C7;" vertex="1" parent="1">
          <mxGeometry x="958" y="308" width="40" height="40" as="geometry" />
        </mxCell>
        <mxCell id="qkSMc_lfLPnd2LmG_SWH-157" value="bs&lt;br&gt;&lt;div&gt;(sym)&lt;/div&gt;" style="whiteSpace=wrap;html=1;aspect=fixed;rotation=-30;fontSize=14;fontFamily=Verdana;fontStyle=1;fontColor=#ffffff;fillColor=#A20025;rounded=1;strokeColor=#6F0000;" vertex="1" parent="1">
          <mxGeometry x="1122" y="308" width="40" height="40" as="geometry" />
        </mxCell>
        <mxCell id="qkSMc_lfLPnd2LmG_SWH-159" value="Esc&lt;br style=&quot;font-size: 14px;&quot;&gt;(nav)" style="whiteSpace=wrap;html=1;aspect=fixed;rotation=-15;fontSize=14;fontFamily=Verdana;fontStyle=1;fillColor=#1ba1e2;strokeColor=#006EAF;fontColor=#FFFFFF;rounded=1;" vertex="1" parent="1">
          <mxGeometry x="1170" y="290" width="40" height="40" as="geometry" />
        </mxCell>
        <mxCell id="qkSMc_lfLPnd2LmG_SWH-160" value="/" style="whiteSpace=wrap;html=1;aspect=fixed;rotation=30;fontSize=14;fontFamily=Verdana;fontStyle=1;fontColor=#AFB9C7;fillColor=#383E47;strokeColor=#F0F0F0;rounded=1;" vertex="1" parent="1">
          <mxGeometry x="283" y="549" width="40" height="40" as="geometry" />
        </mxCell>
        <mxCell id="qkSMc_lfLPnd2LmG_SWH-161" value="&lt;span style=&quot;font-size: 14px;&quot;&gt;&lt;font&gt;sym&lt;/font&gt;&lt;br style=&quot;font-size: 14px;&quot;&gt;&lt;/span&gt;" style="whiteSpace=wrap;html=1;aspect=fixed;rotation=-30;fontSize=14;fontFamily=Verdana;fontStyle=1;fontColor=#AFB9C7;fillColor=#383E47;rounded=1;strokeColor=#F0F0F0;gradientColor=none;dashed=1;" vertex="1" parent="1">
          <mxGeometry x="446" y="549" width="40" height="40" as="geometry" />
        </mxCell>
        <mxCell id="qkSMc_lfLPnd2LmG_SWH-162" value="&lt;div style=&quot;text-align: center;&quot;&gt;&lt;span style=&quot;background-color: initial; font-size: 11px;&quot;&gt;&lt;font face=&quot;Verdana&quot; color=&quot;#3399ff&quot;&gt;Toggle between USB and BLE output if cable is connected&lt;/font&gt;&lt;/span&gt;&lt;/div&gt;" style="text;whiteSpace=wrap;html=1;fontSize=14;fontColor=#AFB9C7;" vertex="1" parent="1">
          <mxGeometry x="40" y="1564" width="150" height="60" as="geometry" />
        </mxCell>
        <mxCell id="qkSMc_lfLPnd2LmG_SWH-163" style="edgeStyle=orthogonalEdgeStyle;rounded=1;orthogonalLoop=1;jettySize=auto;html=1;fontSize=11;strokeColor=#6C8EBF;exitX=0.5;exitY=0;exitDx=0;exitDy=0;entryX=0.5;entryY=1;entryDx=0;entryDy=0;" edge="1" parent="1" source="qkSMc_lfLPnd2LmG_SWH-162" target="qkSMc_lfLPnd2LmG_SWH-195">
          <mxGeometry relative="1" as="geometry">
            <mxPoint x="105" y="1235" as="sourcePoint" />
            <mxPoint x="125.5" y="1205" as="targetPoint" />
          </mxGeometry>
        </mxCell>
        <mxCell id="qkSMc_lfLPnd2LmG_SWH-164" value="&lt;b&gt;Settings&lt;/b&gt;" style="rounded=0;whiteSpace=wrap;html=1;fontFamily=Verdana;fontSize=17;fillColor=#FF9933;strokeColor=#666600;fontStyle=0;fontColor=#ffffff;" vertex="1" parent="1">
          <mxGeometry x="285" y="1345" width="210" height="30" as="geometry" />
        </mxCell>
        <mxCell id="qkSMc_lfLPnd2LmG_SWH-165" value="BT 2" style="whiteSpace=wrap;html=1;aspect=fixed;fontSize=14;fontFamily=Verdana;fontStyle=1;fontColor=#383E47;fillColor=#5C8CCA;rounded=1;strokeColor=#5C8CCA;" vertex="1" parent="1">
          <mxGeometry x="175" y="1375" width="40" height="40" as="geometry" />
        </mxCell>
        <mxCell id="qkSMc_lfLPnd2LmG_SWH-166" value="BT 3" style="whiteSpace=wrap;html=1;aspect=fixed;fontSize=14;fontFamily=Verdana;fontStyle=1;fontColor=#383E47;fillColor=#5C8CCA;rounded=1;strokeColor=#5C8CCA;" vertex="1" parent="1">
          <mxGeometry x="214.5" y="1390" width="40" height="40" as="geometry" />
        </mxCell>
        <mxCell id="qkSMc_lfLPnd2LmG_SWH-167" value="BT 4" style="whiteSpace=wrap;html=1;aspect=fixed;fontSize=14;fontFamily=Verdana;fontStyle=1;fontColor=#383E47;fillColor=#5C8CCA;rounded=1;strokeColor=#5C8CCA;" vertex="1" parent="1">
          <mxGeometry x="254.5" y="1398" width="40" height="40" as="geometry" />
        </mxCell>
        <mxCell id="qkSMc_lfLPnd2LmG_SWH-168" value="" style="whiteSpace=wrap;html=1;aspect=fixed;fontSize=17;fontFamily=Verdana;fontStyle=1;fontColor=#AFB9C7;fillColor=#383E47;rounded=1;" vertex="1" parent="1">
          <mxGeometry x="213.5" y="1430" width="40" height="40" as="geometry" />
        </mxCell>
        <mxCell id="qkSMc_lfLPnd2LmG_SWH-169" value="" style="whiteSpace=wrap;html=1;aspect=fixed;fontSize=17;fontFamily=Verdana;fontStyle=1;fontColor=#AFB9C7;fillColor=#383E47;rounded=1;" vertex="1" parent="1">
          <mxGeometry x="254.5" y="1438" width="40" height="40" as="geometry" />
        </mxCell>
        <mxCell id="qkSMc_lfLPnd2LmG_SWH-170" value="out&lt;br style=&quot;font-size: 14px;&quot;&gt;usb" style="whiteSpace=wrap;html=1;aspect=fixed;fontSize=14;fontFamily=Verdana;fontStyle=1;fontColor=#AFB9C7;fillColor=#383E47;rounded=1;" vertex="1" parent="1">
          <mxGeometry x="134.5" y="1470" width="40" height="40" as="geometry" />
        </mxCell>
        <mxCell id="qkSMc_lfLPnd2LmG_SWH-171" value="" style="whiteSpace=wrap;html=1;aspect=fixed;fontSize=17;fontFamily=Verdana;fontStyle=1;fontColor=#AFB9C7;fillColor=#383E47;rounded=1;" vertex="1" parent="1">
          <mxGeometry x="174.5" y="1455" width="40" height="40" as="geometry" />
        </mxCell>
        <mxCell id="qkSMc_lfLPnd2LmG_SWH-172" value="" style="whiteSpace=wrap;html=1;aspect=fixed;fontSize=17;fontFamily=Verdana;fontStyle=1;fontColor=#AFB9C7;fillColor=#383E47;rounded=1;" vertex="1" parent="1">
          <mxGeometry x="215" y="1470" width="40" height="40" as="geometry" />
        </mxCell>
        <mxCell id="qkSMc_lfLPnd2LmG_SWH-173" value="BL" style="whiteSpace=wrap;html=1;aspect=fixed;fontSize=14;fontFamily=Verdana;fontStyle=1;fontColor=#AFB9C7;fillColor=#383E47;rounded=1;" vertex="1" parent="1">
          <mxGeometry x="255" y="1478" width="40" height="40" as="geometry" />
        </mxCell>
        <mxCell id="qkSMc_lfLPnd2LmG_SWH-174" value="&lt;span style=&quot;color: rgb(255, 255, 255);&quot;&gt;Ext&lt;/span&gt;" style="whiteSpace=wrap;html=1;aspect=fixed;rotation=15;fontSize=17;fontFamily=Verdana;fontStyle=1;fontColor=#333333;fillColor=#60A917;strokeColor=#2D7600;rounded=1;shadow=0;glass=0;sketch=0;" vertex="1" parent="1">
          <mxGeometry x="234.5" y="1524" width="40" height="40" as="geometry" />
        </mxCell>
        <mxCell id="qkSMc_lfLPnd2LmG_SWH-175" value="&lt;div&gt;&lt;font&gt;Spc&lt;/font&gt;&lt;/div&gt;&lt;div&gt;&lt;span style=&quot;font-family: &amp;quot;segoe ui emoji&amp;quot;, &amp;quot;apple color emoji&amp;quot;, &amp;quot;noto color emoji&amp;quot;; font-size: 14px;&quot;&gt;&lt;/span&gt;&lt;/div&gt;&lt;div&gt;&lt;span style=&quot;font-family: &amp;quot;segoe ui emoji&amp;quot;, &amp;quot;apple color emoji&amp;quot;, &amp;quot;noto color emoji&amp;quot;; font-size: 14px;&quot;&gt;&lt;/span&gt;&lt;/div&gt;" style="whiteSpace=wrap;html=1;aspect=fixed;rotation=30;fontSize=14;fontFamily=Verdana;fontStyle=1;fontColor=#AFB9C7;fillColor=#383E47;rounded=1;strokeColor=#F0F0F0;" vertex="1" parent="1">
          <mxGeometry x="282.5" y="1542" width="40" height="40" as="geometry" />
        </mxCell>
        <mxCell id="qkSMc_lfLPnd2LmG_SWH-176" value="" style="whiteSpace=wrap;html=1;aspect=fixed;fontSize=11;fontFamily=Verdana;fontStyle=1;fontColor=#AFB9C7;fillColor=#383E47;rounded=1;" vertex="1" parent="1">
          <mxGeometry x="474.5" y="1398" width="40" height="40" as="geometry" />
        </mxCell>
        <mxCell id="qkSMc_lfLPnd2LmG_SWH-177" value="" style="whiteSpace=wrap;html=1;aspect=fixed;fontSize=11;fontFamily=Verdana;fontStyle=1;fontColor=#AFB9C7;fillColor=#383E47;rounded=1;" vertex="1" parent="1">
          <mxGeometry x="514.5" y="1390" width="40" height="40" as="geometry" />
        </mxCell>
        <mxCell id="qkSMc_lfLPnd2LmG_SWH-178" value="" style="whiteSpace=wrap;html=1;aspect=fixed;fontSize=16;fontFamily=Verdana;fontStyle=1;fontColor=#AFB9C7;fillColor=#383E47;rounded=1;" vertex="1" parent="1">
          <mxGeometry x="554.5" y="1375" width="40" height="40" as="geometry" />
        </mxCell>
        <mxCell id="qkSMc_lfLPnd2LmG_SWH-179" value="" style="whiteSpace=wrap;html=1;aspect=fixed;fontSize=11;fontFamily=Verdana;fontStyle=1;fontColor=#AFB9C7;fillColor=#383E47;rounded=1;" vertex="1" parent="1">
          <mxGeometry x="594.5" y="1390" width="40" height="40" as="geometry" />
        </mxCell>
        <mxCell id="qkSMc_lfLPnd2LmG_SWH-180" value="" style="whiteSpace=wrap;html=1;aspect=fixed;fontSize=11;fontFamily=Verdana;fontStyle=1;fontColor=#AFB9C7;fillColor=#383E47;rounded=1;" vertex="1" parent="1">
          <mxGeometry x="634.5" y="1416" width="40" height="40" as="geometry" />
        </mxCell>
        <mxCell id="qkSMc_lfLPnd2LmG_SWH-181" value="" style="whiteSpace=wrap;html=1;aspect=fixed;fontSize=11;fontFamily=Verdana;fontStyle=1;fontColor=#AFB9C7;fillColor=#383E47;rounded=1;" vertex="1" parent="1">
          <mxGeometry x="474.5" y="1438" width="40" height="40" as="geometry" />
        </mxCell>
        <mxCell id="qkSMc_lfLPnd2LmG_SWH-182" value="" style="whiteSpace=wrap;html=1;aspect=fixed;fontSize=11;fontFamily=Verdana;fontStyle=1;fontColor=#AFB9C7;fillColor=#383E47;rounded=1;" vertex="1" parent="1">
          <mxGeometry x="514.5" y="1430" width="40" height="40" as="geometry" />
        </mxCell>
        <mxCell id="qkSMc_lfLPnd2LmG_SWH-183" value="" style="whiteSpace=wrap;html=1;aspect=fixed;fontSize=11;fontFamily=Verdana;fontStyle=1;fontColor=#AFB9C7;fillColor=#383E47;rounded=1;" vertex="1" parent="1">
          <mxGeometry x="554.5" y="1415" width="40" height="40" as="geometry" />
        </mxCell>
        <mxCell id="qkSMc_lfLPnd2LmG_SWH-184" value="" style="whiteSpace=wrap;html=1;aspect=fixed;fontSize=11;fontFamily=Verdana;fontStyle=1;fontColor=#AFB9C7;fillColor=#383E47;rounded=1;" vertex="1" parent="1">
          <mxGeometry x="594.5" y="1430" width="40" height="40" as="geometry" />
        </mxCell>
        <mxCell id="qkSMc_lfLPnd2LmG_SWH-185" value="" style="whiteSpace=wrap;html=1;aspect=fixed;fontSize=11;fontFamily=Verdana;fontStyle=1;fontColor=#AFB9C7;fillColor=#383E47;rounded=1;" vertex="1" parent="1">
          <mxGeometry x="634.5" y="1456" width="40" height="40" as="geometry" />
        </mxCell>
        <mxCell id="qkSMc_lfLPnd2LmG_SWH-186" value="&lt;span style=&quot;font-size: 14px;&quot;&gt;BL&lt;br&gt;&lt;/span&gt;" style="whiteSpace=wrap;html=1;aspect=fixed;fontSize=17;fontFamily=Verdana;fontStyle=1;fontColor=#AFB9C7;fillColor=#383E47;rounded=1;" vertex="1" parent="1">
          <mxGeometry x="474.5" y="1478" width="40" height="40" as="geometry" />
        </mxCell>
        <mxCell id="qkSMc_lfLPnd2LmG_SWH-187" value="" style="whiteSpace=wrap;html=1;aspect=fixed;fontSize=17;fontFamily=Verdana;fontStyle=1;fontColor=#AFB9C7;fillColor=#383E47;rounded=1;" vertex="1" parent="1">
          <mxGeometry x="514.5" y="1470" width="40" height="40" as="geometry" />
        </mxCell>
        <mxCell id="qkSMc_lfLPnd2LmG_SWH-188" value="&lt;font style=&quot;font-size: 11px;&quot;&gt;&lt;br&gt;&lt;/font&gt;" style="whiteSpace=wrap;html=1;aspect=fixed;fontSize=17;fontFamily=Verdana;fontStyle=1;fontColor=#AFB9C7;fillColor=#383E47;rounded=1;" vertex="1" parent="1">
          <mxGeometry x="554.5" y="1455" width="40" height="40" as="geometry" />
        </mxCell>
        <mxCell id="qkSMc_lfLPnd2LmG_SWH-189" value="" style="whiteSpace=wrap;html=1;aspect=fixed;fontSize=17;fontFamily=Verdana;fontStyle=1;fontColor=#AFB9C7;fillColor=#383E47;rounded=1;" vertex="1" parent="1">
          <mxGeometry x="594.5" y="1470" width="40" height="40" as="geometry" />
        </mxCell>
        <mxCell id="qkSMc_lfLPnd2LmG_SWH-190" value="" style="whiteSpace=wrap;html=1;aspect=fixed;fontSize=11;fontFamily=Verdana;fontStyle=1;fontColor=#AFB9C7;fillColor=#383E47;rounded=1;" vertex="1" parent="1">
          <mxGeometry x="634.5" y="1496" width="40" height="40" as="geometry" />
        </mxCell>
        <mxCell id="qkSMc_lfLPnd2LmG_SWH-191" value="" style="whiteSpace=wrap;html=1;aspect=fixed;rotation=-15;fontSize=14;fontFamily=Verdana;fontStyle=1;fontColor=#ffffff;fillColor=none;strokeColor=#F0F0F0;rounded=1;dashed=1;" vertex="1" parent="1">
          <mxGeometry x="494.5" y="1524" width="40" height="40" as="geometry" />
        </mxCell>
        <mxCell id="qkSMc_lfLPnd2LmG_SWH-192" value="&lt;span style=&quot;color: rgb(255, 255, 255);&quot;&gt;Ext&lt;/span&gt;" style="whiteSpace=wrap;html=1;aspect=fixed;rotation=15;fontSize=17;fontFamily=Verdana;fontStyle=1;fontColor=#333333;fillColor=#60A917;strokeColor=#2D7600;rounded=1;shadow=0;glass=0;sketch=0;" vertex="1" parent="1">
          <mxGeometry x="234.5" y="1524" width="40" height="40" as="geometry" />
        </mxCell>
        <mxCell id="qkSMc_lfLPnd2LmG_SWH-193" value="" style="whiteSpace=wrap;html=1;aspect=fixed;rotation=15;fontSize=14;fontFamily=Verdana;fontStyle=1;fontColor=#333333;fillColor=#383E47;strokeColor=#F0F0F0;rounded=1;shadow=0;glass=0;sketch=0;" vertex="1" parent="1">
          <mxGeometry x="234.5" y="1524" width="40" height="40" as="geometry" />
        </mxCell>
        <mxCell id="qkSMc_lfLPnd2LmG_SWH-194" value="" style="whiteSpace=wrap;html=1;aspect=fixed;rotation=-30;fontSize=14;fontFamily=Verdana;fontStyle=1;fontColor=#FFFFFF;fillColor=none;strokeColor=#F0F0F0;rounded=1;shadow=0;glass=0;sketch=0;dashed=1;" vertex="1" parent="1">
          <mxGeometry x="446" y="1542" width="40" height="40" as="geometry" />
        </mxCell>
        <mxCell id="qkSMc_lfLPnd2LmG_SWH-195" value="out&amp;nbsp;&lt;br style=&quot;font-size: 14px;&quot;&gt;BT" style="whiteSpace=wrap;html=1;aspect=fixed;fontSize=14;fontFamily=Verdana;fontStyle=1;fontColor=#AFB9C7;fillColor=#383E47;rounded=1;" vertex="1" parent="1">
          <mxGeometry x="94.5" y="1498" width="40" height="40" as="geometry" />
        </mxCell>
        <mxCell id="qkSMc_lfLPnd2LmG_SWH-196" value="" style="whiteSpace=wrap;html=1;aspect=fixed;fontSize=17;fontFamily=Verdana;fontStyle=1;fontColor=#AFB9C7;fillColor=#383E47;rounded=1;" vertex="1" parent="1">
          <mxGeometry x="135" y="1430" width="40" height="40" as="geometry" />
        </mxCell>
        <mxCell id="qkSMc_lfLPnd2LmG_SWH-197" value="" style="whiteSpace=wrap;html=1;aspect=fixed;fontSize=17;fontFamily=Verdana;fontStyle=1;fontColor=#AFB9C7;fillColor=#383E47;rounded=1;" vertex="1" parent="1">
          <mxGeometry x="175" y="1415" width="40" height="40" as="geometry" />
        </mxCell>
        <mxCell id="qkSMc_lfLPnd2LmG_SWH-198" value="&lt;span style=&quot;font-size: 14px;&quot;&gt;BT&lt;/span&gt;&lt;br style=&quot;font-size: 14px;&quot;&gt;&lt;span style=&quot;font-size: 14px;&quot;&gt;CRL&lt;/span&gt;&lt;span style=&quot;font-family: monospace; font-size: 0px; font-weight: 400; text-align: start;&quot;&gt;3CmxGraphModel%3E%3Croot%3E%3CmxCell%20id%3D%220%22%2F%3E%3CmxCell%20id%3D%221%22%20parent%3D%220%22%2F%3E%3CmxCell%20id%3D%222%22%20value%3D%22BT%26lt%3Bbr%20style%3D%26quot%3Bfont-size%3A%2014px%3B%26quot%3B%26gt%3BCRL%22%20style%3D%22whiteSpace%3Dwrap%3Bhtml%3D1%3Baspect%3Dfixed%3BfontSize%3D14%3BfontFamily%3DVerdana%3BfontStyle%3D1%3BfillColor%3D%235C8CCA%3BstrokeColor%3D%23456893%3BfontColor%3D%23090e14%3Brounded%3D1%3B%22%20vertex%3D%221%22%20parent%3D%221%22%3E%3CmxGeometry%20x%3D%22270%22%20y%3D%22945%22%20width%3D%2240%22%20height%3D%2240%22%20as%3D%22geometry%22%2F%3E%3C%2FmxCell%3E%3C%2Froot%3E%3C%2FmxGraphModel%3E&lt;/span&gt;" style="whiteSpace=wrap;html=1;aspect=fixed;fontSize=14;fontFamily=Verdana;fontStyle=1;fontColor=#383E47;fillColor=#5C8CCA;rounded=1;strokeColor=#5C8CCA;" vertex="1" parent="1">
          <mxGeometry x="94.5" y="1458" width="40" height="40" as="geometry" />
        </mxCell>
        <mxCell id="qkSMc_lfLPnd2LmG_SWH-199" value="BT 0" style="whiteSpace=wrap;html=1;aspect=fixed;fontSize=14;fontFamily=Verdana;fontStyle=1;fontColor=#383E47;fillColor=#5C8CCA;rounded=1;strokeColor=#5C8CCA;" vertex="1" parent="1">
          <mxGeometry x="95" y="1418" width="40" height="40" as="geometry" />
        </mxCell>
        <mxCell id="qkSMc_lfLPnd2LmG_SWH-200" value="BT 1" style="whiteSpace=wrap;html=1;aspect=fixed;fontSize=14;fontFamily=Verdana;fontStyle=1;fontColor=#383E47;fillColor=#5C8CCA;rounded=1;strokeColor=#5C8CCA;" vertex="1" parent="1">
          <mxGeometry x="135" y="1390" width="40" height="40" as="geometry" />
        </mxCell>
        <mxCell id="qkSMc_lfLPnd2LmG_SWH-201" value="7" style="whiteSpace=wrap;html=1;aspect=fixed;fontSize=17;fontFamily=Verdana;fontStyle=1;fontColor=#000000;fillColor=#FFB366;rounded=1;strokeColor=#D79B00;" vertex="1" parent="1">
          <mxGeometry x="134.5" y="1090" width="40" height="40" as="geometry" />
        </mxCell>
        <mxCell id="qkSMc_lfLPnd2LmG_SWH-202" value="" style="whiteSpace=wrap;html=1;aspect=fixed;fontSize=17;fontFamily=Verdana;fontStyle=1;fontColor=#AFB9C7;fillColor=#383E47;rounded=1;" vertex="1" parent="1">
          <mxGeometry x="95" y="1157" width="40" height="40" as="geometry" />
        </mxCell>
        <mxCell id="qkSMc_lfLPnd2LmG_SWH-203" value="6" style="whiteSpace=wrap;html=1;aspect=fixed;fontSize=14;fontFamily=Verdana;fontStyle=1;fontColor=#000000;fillColor=#FFB366;rounded=1;strokeColor=#D79B00;" vertex="1" parent="1">
          <mxGeometry x="94.5" y="1117" width="40" height="40" as="geometry" />
        </mxCell>
        <mxCell id="qkSMc_lfLPnd2LmG_SWH-204" value="8" style="whiteSpace=wrap;html=1;aspect=fixed;fontSize=17;fontFamily=Verdana;fontStyle=1;fontColor=#000000;fillColor=#FFB366;rounded=1;strokeColor=#D79B00;" vertex="1" parent="1">
          <mxGeometry x="175" y="1075" width="40" height="40" as="geometry" />
        </mxCell>
        <mxCell id="qkSMc_lfLPnd2LmG_SWH-206" style="rounded=1;orthogonalLoop=1;jettySize=auto;html=1;fontSize=14;fontColor=#F0F0F0;exitX=0.5;exitY=1;exitDx=0;exitDy=0;edgeStyle=orthogonalEdgeStyle;" edge="1" parent="1" target="qkSMc_lfLPnd2LmG_SWH-208">
          <mxGeometry relative="1" as="geometry">
            <mxPoint x="477" y="587.0005080756889" as="sourcePoint" />
            <Array as="points">
              <mxPoint x="477" y="595.6800000000001" />
            </Array>
          </mxGeometry>
        </mxCell>
        <mxCell id="qkSMc_lfLPnd2LmG_SWH-207" style="edgeStyle=orthogonalEdgeStyle;rounded=1;orthogonalLoop=1;jettySize=auto;html=1;fontSize=14;fontColor=#F0F0F0;exitX=0.5;exitY=1;exitDx=0;exitDy=0;" edge="1" parent="1" target="qkSMc_lfLPnd2LmG_SWH-208">
          <mxGeometry relative="1" as="geometry">
            <mxPoint x="520.1763809020504" y="570.9985165257815" as="sourcePoint" />
            <Array as="points">
              <mxPoint x="520" y="595.6800000000001" />
            </Array>
          </mxGeometry>
        </mxCell>
        <mxCell id="qkSMc_lfLPnd2LmG_SWH-208" value="Set" style="whiteSpace=wrap;html=1;aspect=fixed;fontSize=14;fontFamily=Verdana;fontStyle=1;fontColor=#F0F0F0;fillColor=#999900;rounded=1;strokeColor=#666600;" vertex="1" parent="1">
          <mxGeometry x="577" y="575.6800000000001" width="40" height="40" as="geometry" />
        </mxCell>
        <mxCell id="qkSMc_lfLPnd2LmG_SWH-209" style="rounded=1;orthogonalLoop=1;jettySize=auto;html=1;fontSize=14;fontColor=#F0F0F0;exitX=0.5;exitY=1;exitDx=0;exitDy=0;edgeStyle=orthogonalEdgeStyle;shadow=0;" edge="1" parent="1" target="qkSMc_lfLPnd2LmG_SWH-211">
          <mxGeometry relative="1" as="geometry">
            <mxPoint x="477" y="915.0005080756888" as="sourcePoint" />
            <Array as="points">
              <mxPoint x="477" y="923.68" />
            </Array>
          </mxGeometry>
        </mxCell>
        <mxCell id="qkSMc_lfLPnd2LmG_SWH-210" style="edgeStyle=orthogonalEdgeStyle;rounded=1;orthogonalLoop=1;jettySize=auto;html=1;fontSize=14;fontColor=#F0F0F0;exitX=0.5;exitY=1;exitDx=0;exitDy=0;shadow=0;" edge="1" parent="1" target="qkSMc_lfLPnd2LmG_SWH-211">
          <mxGeometry relative="1" as="geometry">
            <mxPoint x="520.1763809020504" y="898.9985165257814" as="sourcePoint" />
            <Array as="points">
              <mxPoint x="520" y="923.68" />
            </Array>
          </mxGeometry>
        </mxCell>
        <mxCell id="qkSMc_lfLPnd2LmG_SWH-211" value="Set" style="whiteSpace=wrap;html=1;aspect=fixed;fontSize=14;fontFamily=Verdana;fontStyle=1;fontColor=#F0F0F0;fillColor=#999900;rounded=1;strokeColor=#666600;shadow=0;" vertex="1" parent="1">
          <mxGeometry x="577" y="903.68" width="40" height="40" as="geometry" />
        </mxCell>
        <mxCell id="qkSMc_lfLPnd2LmG_SWH-212" value="Set" style="whiteSpace=wrap;html=1;aspect=fixed;fontSize=14;fontFamily=Verdana;fontStyle=1;fontColor=#F0F0F0;fillColor=#FF9933;rounded=1;strokeColor=#666600;shadow=0;" vertex="1" parent="1">
          <mxGeometry x="577" y="903.68" width="40" height="40" as="geometry" />
        </mxCell>
        <mxCell id="qkSMc_lfLPnd2LmG_SWH-213" value="Set" style="whiteSpace=wrap;html=1;aspect=fixed;fontSize=14;fontFamily=Verdana;fontStyle=1;fontColor=#F0F0F0;fillColor=#FF9933;rounded=1;strokeColor=#666600;" vertex="1" parent="1">
          <mxGeometry x="577" y="575.6800000000001" width="40" height="40" as="geometry" />
        </mxCell>
        <mxCell id="qkSMc_lfLPnd2LmG_SWH-215" value="Set" style="whiteSpace=wrap;html=1;aspect=fixed;fontSize=14;fontFamily=Verdana;fontStyle=1;fontColor=#F0F0F0;fillColor=#FF9933;rounded=1;strokeColor=#666600;" vertex="1" parent="1">
          <mxGeometry x="1252" y="334" width="40" height="40" as="geometry" />
        </mxCell>
        <mxCell id="qkSMc_lfLPnd2LmG_SWH-216" value="Set" style="whiteSpace=wrap;html=1;aspect=fixed;fontSize=14;fontFamily=Verdana;fontStyle=1;fontColor=#F0F0F0;fillColor=#FF9933;rounded=1;strokeColor=#666600;" vertex="1" parent="1">
          <mxGeometry x="577" y="575.6800000000001" width="40" height="40" as="geometry" />
        </mxCell>
        <mxCell id="qkSMc_lfLPnd2LmG_SWH-217" value="Å" style="whiteSpace=wrap;html=1;aspect=fixed;fontSize=17;fontFamily=Verdana;fontStyle=1;fontColor=#AFB9C7;fillColor=#383E47;rounded=1;" vertex="1" parent="1">
          <mxGeometry x="674.5" y="199" width="40" height="40" as="geometry" />
        </mxCell>
        <mxCell id="qkSMc_lfLPnd2LmG_SWH-218" value="&lt;font style=&quot;font-size: 9px;&quot;&gt;LCTRL&lt;/font&gt;" style="whiteSpace=wrap;html=1;aspect=fixed;fontSize=17;fontFamily=Verdana;fontStyle=1;fontColor=#AFB9C7;fillColor=#383E47;rounded=1;" vertex="1" parent="1">
          <mxGeometry x="55" y="197" width="40" height="40" as="geometry" />
        </mxCell>
        <mxCell id="qkSMc_lfLPnd2LmG_SWH-219" value="" style="whiteSpace=wrap;html=1;aspect=fixed;fontSize=17;fontFamily=Verdana;fontStyle=1;fontColor=#AFB9C7;fillColor=#383E47;rounded=1;" vertex="1" parent="1">
          <mxGeometry x="55" y="512" width="40" height="40" as="geometry" />
        </mxCell>
        <mxCell id="qkSMc_lfLPnd2LmG_SWH-220" value="&lt;div style=&quot;font-size: 11px;&quot;&gt;&lt;font style=&quot;font-size: 11px;&quot;&gt;caps&lt;/font&gt;&lt;/div&gt;&lt;div style=&quot;font-size: 11px;&quot;&gt;&lt;font style=&quot;font-size: 11px;&quot;&gt;word&lt;font style=&quot;font-size: 11px;&quot;&gt;&lt;br style=&quot;font-size: 11px;&quot;&gt;&lt;/font&gt;&lt;/font&gt;&lt;/div&gt;" style="whiteSpace=wrap;html=1;aspect=fixed;fontSize=11;fontFamily=Verdana;fontStyle=1;fontColor=#AFB9C7;fillColor=#383E47;rounded=1;" vertex="1" parent="1">
          <mxGeometry x="55" y="838" width="40" height="40" as="geometry" />
        </mxCell>
        <mxCell id="qkSMc_lfLPnd2LmG_SWH-221" value="" style="whiteSpace=wrap;html=1;aspect=fixed;fontSize=17;fontFamily=Verdana;fontStyle=1;fontColor=#AFB9C7;fillColor=#383E47;rounded=1;" vertex="1" parent="1">
          <mxGeometry x="54.5" y="1164" width="40" height="40" as="geometry" />
        </mxCell>
        <mxCell id="qkSMc_lfLPnd2LmG_SWH-222" value="" style="whiteSpace=wrap;html=1;aspect=fixed;fontSize=17;fontFamily=Verdana;fontStyle=1;fontColor=#AFB9C7;fillColor=#383E47;rounded=1;" vertex="1" parent="1">
          <mxGeometry x="54.5" y="1505" width="40" height="40" as="geometry" />
        </mxCell>
        <mxCell id="qkSMc_lfLPnd2LmG_SWH-223" value="" style="whiteSpace=wrap;html=1;aspect=fixed;fontSize=17;fontFamily=Verdana;fontStyle=1;fontColor=#AFB9C7;fillColor=#383E47;rounded=1;" vertex="1" parent="1">
          <mxGeometry x="675" y="511" width="40" height="40" as="geometry" />
        </mxCell>
        <mxCell id="qkSMc_lfLPnd2LmG_SWH-224" value="" style="whiteSpace=wrap;html=1;aspect=fixed;fontSize=17;fontFamily=Verdana;fontStyle=1;fontColor=#AFB9C7;fillColor=#383E47;rounded=1;" vertex="1" parent="1">
          <mxGeometry x="675" y="1161" width="40" height="40" as="geometry" />
        </mxCell>
        <mxCell id="qkSMc_lfLPnd2LmG_SWH-225" value="&lt;font style=&quot;font-size: 12px;&quot;&gt;default&lt;/font&gt;" style="whiteSpace=wrap;html=1;aspect=fixed;fontSize=17;fontFamily=Verdana;fontStyle=1;fontColor=#AFB9C7;fillColor=#383E47;rounded=1;" vertex="1" parent="1">
          <mxGeometry x="675" y="1502" width="40" height="40" as="geometry" />
        </mxCell>
        <mxCell id="qkSMc_lfLPnd2LmG_SWH-226" value="&lt;div&gt;Ent&lt;/div&gt;" style="whiteSpace=wrap;html=1;aspect=fixed;rotation=40;fontSize=14;fontFamily=Verdana;fontStyle=1;fontColor=#AFB9C7;fillColor=#383E47;rounded=1;align=center;verticalAlign=middle;strokeColor=#F0F0F0;" vertex="1" parent="1">
          <mxGeometry x="998" y="336" width="40" height="40" as="geometry" />
        </mxCell>
        <mxCell id="qkSMc_lfLPnd2LmG_SWH-227" value="" style="whiteSpace=wrap;html=1;aspect=fixed;rotation=40;fontSize=14;fontFamily=Verdana;fontStyle=1;fontColor=#AFB9C7;fillColor=#383E47;rounded=1;align=center;verticalAlign=middle;strokeColor=#F0F0F0;" vertex="1" parent="1">
          <mxGeometry x="323" y="575.6800000000001" width="40" height="40" as="geometry" />
        </mxCell>
        <mxCell id="qkSMc_lfLPnd2LmG_SWH-228" value="" style="whiteSpace=wrap;html=1;aspect=fixed;rotation=40;fontSize=14;fontFamily=Verdana;fontStyle=1;fontColor=#AFB9C7;fillColor=#383E47;rounded=1;align=center;verticalAlign=middle;strokeColor=#F0F0F0;" vertex="1" parent="1">
          <mxGeometry x="322.5" y="903.6800000000001" width="40" height="40" as="geometry" />
        </mxCell>
        <mxCell id="qkSMc_lfLPnd2LmG_SWH-229" value="" style="whiteSpace=wrap;html=1;aspect=fixed;rotation=40;fontSize=14;fontFamily=Verdana;fontStyle=1;fontColor=#AFB9C7;fillColor=#383E47;rounded=1;align=center;verticalAlign=middle;strokeColor=#F0F0F0;" vertex="1" parent="1">
          <mxGeometry x="323" y="1229" width="40" height="40" as="geometry" />
        </mxCell>
        <mxCell id="qkSMc_lfLPnd2LmG_SWH-230" value="" style="whiteSpace=wrap;html=1;aspect=fixed;rotation=40;fontSize=14;fontFamily=Verdana;fontStyle=1;fontColor=#AFB9C7;fillColor=#383E47;rounded=1;align=center;verticalAlign=middle;strokeColor=#F0F0F0;" vertex="1" parent="1">
          <mxGeometry x="320.5" y="1569" width="40" height="40" as="geometry" />
        </mxCell>
        <mxCell id="qkSMc_lfLPnd2LmG_SWH-231" value="" style="whiteSpace=wrap;html=1;aspect=fixed;rotation=-45;fontSize=17;fontFamily=Verdana;fontStyle=1;fontColor=#AFB9C7;fillColor=#383E47;rounded=1;strokeColor=default;" vertex="1" parent="1">
          <mxGeometry x="409" y="905" width="40" height="40" as="geometry" />
        </mxCell>
        <mxCell id="qkSMc_lfLPnd2LmG_SWH-232" value="" style="whiteSpace=wrap;html=1;aspect=fixed;rotation=-45;fontSize=17;fontFamily=Verdana;fontStyle=1;fontColor=#AFB9C7;fillColor=#383E47;rounded=1;strokeColor=default;" vertex="1" parent="1">
          <mxGeometry x="409" y="577.6800000000001" width="40" height="40" as="geometry" />
        </mxCell>
        <mxCell id="qkSMc_lfLPnd2LmG_SWH-233" value="" style="whiteSpace=wrap;html=1;aspect=fixed;rotation=-45;fontSize=17;fontFamily=Verdana;fontStyle=1;fontColor=#AFB9C7;fillColor=#383E47;rounded=1;" vertex="1" parent="1">
          <mxGeometry x="409" y="1232" width="40" height="40" as="geometry" />
        </mxCell>
        <mxCell id="qkSMc_lfLPnd2LmG_SWH-234" value="" style="whiteSpace=wrap;html=1;aspect=fixed;rotation=-45;fontSize=17;fontFamily=Verdana;fontStyle=1;fontColor=#AFB9C7;fillColor=#383E47;rounded=1;strokeColor=default;" vertex="1" parent="1">
          <mxGeometry x="407" y="1572" width="40" height="40" as="geometry" />
        </mxCell>
        <mxCell id="qkSMc_lfLPnd2LmG_SWH-235" value="&lt;font style=&quot;font-size: 9px;&quot;&gt;SHIFT&lt;/font&gt;" style="whiteSpace=wrap;html=1;aspect=fixed;fontSize=14;fontFamily=Verdana;fontStyle=1;fontColor=#AFB9C7;fillColor=#383E47;rounded=1;" vertex="1" parent="1">
          <mxGeometry x="55" y="157" width="40" height="40" as="geometry" />
        </mxCell>
        <mxCell id="qkSMc_lfLPnd2LmG_SWH-236" value="" style="whiteSpace=wrap;html=1;aspect=fixed;fontSize=17;fontFamily=Verdana;fontStyle=1;fontColor=#AFB9C7;fillColor=#383E47;rounded=1;" vertex="1" parent="1">
          <mxGeometry x="55" y="471" width="40" height="40" as="geometry" />
        </mxCell>
        <mxCell id="qkSMc_lfLPnd2LmG_SWH-237" value="`" style="whiteSpace=wrap;html=1;aspect=fixed;fontSize=17;fontFamily=Verdana;fontStyle=1;fontColor=#AFB9C7;fillColor=#383E47;rounded=1;" vertex="1" parent="1">
          <mxGeometry x="675" y="471" width="40" height="40" as="geometry" />
        </mxCell>
        <mxCell id="qkSMc_lfLPnd2LmG_SWH-238" value="" style="whiteSpace=wrap;html=1;aspect=fixed;fontSize=17;fontFamily=Verdana;fontStyle=1;fontColor=#AFB9C7;fillColor=#383E47;rounded=1;" vertex="1" parent="1">
          <mxGeometry x="55" y="798" width="40" height="40" as="geometry" />
        </mxCell>
        <mxCell id="qkSMc_lfLPnd2LmG_SWH-239" value="vol+" style="whiteSpace=wrap;html=1;aspect=fixed;fontSize=11;fontFamily=Verdana;fontStyle=1;fontColor=#AFB9C7;fillColor=#383E47;rounded=1;" vertex="1" parent="1">
          <mxGeometry x="675" y="797" width="40" height="40" as="geometry" />
        </mxCell>
        <mxCell id="qkSMc_lfLPnd2LmG_SWH-240" value="" style="whiteSpace=wrap;html=1;aspect=fixed;fontSize=17;fontFamily=Verdana;fontStyle=1;fontColor=#AFB9C7;fillColor=#383E47;rounded=1;" vertex="1" parent="1">
          <mxGeometry x="55" y="1124" width="40" height="40" as="geometry" />
        </mxCell>
        <mxCell id="qkSMc_lfLPnd2LmG_SWH-241" value="" style="whiteSpace=wrap;html=1;aspect=fixed;fontSize=17;fontFamily=Verdana;fontStyle=1;fontColor=#AFB9C7;fillColor=#383E47;rounded=1;" vertex="1" parent="1">
          <mxGeometry x="674.5" y="1121" width="40" height="40" as="geometry" />
        </mxCell>
        <mxCell id="qkSMc_lfLPnd2LmG_SWH-242" value="" style="whiteSpace=wrap;html=1;aspect=fixed;fontSize=17;fontFamily=Verdana;fontStyle=1;fontColor=#AFB9C7;fillColor=#383E47;rounded=1;" vertex="1" parent="1">
          <mxGeometry x="55" y="1465" width="40" height="40" as="geometry" />
        </mxCell>
        <mxCell id="qkSMc_lfLPnd2LmG_SWH-243" value="" style="whiteSpace=wrap;html=1;aspect=fixed;fontSize=12;fontFamily=Verdana;fontStyle=1;fontColor=#AFB9C7;fillColor=#383E47;rounded=1;" vertex="1" parent="1">
          <mxGeometry x="675" y="1462" width="40" height="40" as="geometry" />
        </mxCell>
        <mxCell id="qkSMc_lfLPnd2LmG_SWH-244" value="Ä" style="whiteSpace=wrap;html=1;aspect=fixed;fontSize=17;fontFamily=Verdana;fontStyle=1;fontColor=#AFB9C7;fillColor=#383E47;rounded=1;" vertex="1" parent="1">
          <mxGeometry x="674.5" y="159" width="40" height="40" as="geometry" />
        </mxCell>
        <mxCell id="qkSMc_lfLPnd2LmG_SWH-245" value="&lt;div style=&quot;font-size: 14px;&quot;&gt;del&lt;/div&gt;" style="whiteSpace=wrap;html=1;aspect=fixed;rotation=-45;fontSize=14;fontFamily=Verdana;fontStyle=1;fontColor=#AFB9C7;fillColor=#383E47;rounded=1;" vertex="1" parent="1">
          <mxGeometry x="1084" y="336.00000000000006" width="40" height="40" as="geometry" />
        </mxCell>
        <mxCell id="qkSMc_lfLPnd2LmG_SWH-246" value="vol-" style="whiteSpace=wrap;html=1;aspect=fixed;fontSize=11;fontFamily=Verdana;fontStyle=1;fontColor=#AFB9C7;fillColor=#383E47;rounded=1;" vertex="1" parent="1">
          <mxGeometry x="675" y="837" width="40" height="40" as="geometry" />
        </mxCell>
        <mxCell id="qkSMc_lfLPnd2LmG_SWH-247" value="" style="whiteSpace=wrap;html=1;aspect=fixed;rotation=15;fontSize=14;fontFamily=Verdana;fontStyle=1;fontColor=#333333;fillColor=#383E47;strokeColor=#F0F0F0;rounded=1;shadow=0;glass=0;sketch=0;" vertex="1" parent="1">
          <mxGeometry x="235" y="1184" width="40" height="40" as="geometry" />
        </mxCell>
        <mxCell id="qkSMc_lfLPnd2LmG_SWH-248" value="bs" style="whiteSpace=wrap;html=1;aspect=fixed;rotation=-30;fontSize=17;fontFamily=Verdana;fontStyle=1;fontColor=#AFB9C7;fillColor=#383E47;strokeColor=#F0F0F0;rounded=1;shadow=0;glass=0;sketch=0;" vertex="1" parent="1">
          <mxGeometry x="445" y="1542" width="40" height="40" as="geometry" />
        </mxCell>
        <mxCell id="qkSMc_lfLPnd2LmG_SWH-249" value="0" style="whiteSpace=wrap;html=1;aspect=fixed;rotation=-15;fontSize=17;fontFamily=Verdana;fontStyle=1;fontColor=#AFB9C7;fillColor=#383E47;strokeColor=#F0F0F0;rounded=1;shadow=0;glass=0;sketch=0;" vertex="1" parent="1">
          <mxGeometry x="493" y="1524" width="40" height="40" as="geometry" />
        </mxCell>
        <mxCell id="qkSMc_lfLPnd2LmG_SWH-250" value="&lt;font style=&quot;font-size: 10px;&quot; color=&quot;#afb9c7&quot;&gt;repeat&lt;/font&gt;" style="whiteSpace=wrap;html=1;aspect=fixed;rotation=15;fontSize=14;fontFamily=Verdana;fontStyle=1;fontColor=#ffffff;fillColor=#383E47;strokeColor=#F0F0F0;rounded=1;" vertex="1" parent="1">
          <mxGeometry x="235" y="859" width="40" height="40" as="geometry" />
        </mxCell>
        <mxCell id="qkSMc_lfLPnd2LmG_SWH-251" value="tab" style="whiteSpace=wrap;html=1;aspect=fixed;fontSize=14;fontFamily=Verdana;fontStyle=1;fontColor=#AFB9C7;fillColor=#383E47;rounded=1;" vertex="1" parent="1">
          <mxGeometry x="54.5" y="117" width="40" height="40" as="geometry" />
        </mxCell>
        <mxCell id="qkSMc_lfLPnd2LmG_SWH-253" value="" style="whiteSpace=wrap;html=1;aspect=fixed;fontSize=17;fontFamily=Verdana;fontStyle=1;fontColor=#AFB9C7;fillColor=#383E47;rounded=1;" vertex="1" parent="1">
          <mxGeometry x="674.5" y="119" width="40" height="40" as="geometry" />
        </mxCell>
        <mxCell id="qkSMc_lfLPnd2LmG_SWH-266" value="&lt;div style=&quot;font-size: 11px;&quot;&gt;tab/lgui&lt;/div&gt;(num)" style="whiteSpace=wrap;html=1;rotation=0;fontSize=11;fontFamily=Verdana;fontStyle=1;fillColor=#6A00FF;strokeColor=#3700CC;fontColor=#ffffff;rounded=1;" vertex="1" parent="1">
          <mxGeometry x="185" y="232" width="50" height="40" as="geometry" />
        </mxCell>
        <mxCell id="qkSMc_lfLPnd2LmG_SWH-267" value="Ent" style="whiteSpace=wrap;html=1;rotation=0;fontSize=14;fontFamily=Verdana;fontStyle=1;fontColor=#AFB9C7;fillColor=#383E47;rounded=1;align=center;verticalAlign=middle;strokeColor=#AFB9C7;" vertex="1" parent="1">
          <mxGeometry x="234.5" y="232" width="50" height="40" as="geometry" />
        </mxCell>
        <mxCell id="qkSMc_lfLPnd2LmG_SWH-268" value="Spc" style="whiteSpace=wrap;html=1;rotation=0;fontSize=14;fontFamily=Verdana;fontStyle=1;fontColor=#AFB9C7;fillColor=#383E47;rounded=1;align=center;verticalAlign=middle;strokeColor=#F0F0F0;" vertex="1" parent="1">
          <mxGeometry x="336" y="232" width="100" height="40" as="geometry" />
        </mxCell>
        <mxCell id="qkSMc_lfLPnd2LmG_SWH-269" value="&lt;div&gt;bs&lt;/div&gt;&lt;div&gt;(sym)&lt;br&gt;&lt;/div&gt;" style="whiteSpace=wrap;html=1;rotation=0;fontSize=11;fontFamily=Verdana;fontStyle=1;fillColor=#6A00FF;strokeColor=#3700CC;fontColor=#ffffff;rounded=1;" vertex="1" parent="1">
          <mxGeometry x="486" y="232" width="50" height="40" as="geometry" />
        </mxCell>
        <mxCell id="qkSMc_lfLPnd2LmG_SWH-271" value="Esc&lt;br style=&quot;font-size: 14px;&quot;&gt;(nav)" style="whiteSpace=wrap;html=1;rotation=0;fontSize=14;fontFamily=Verdana;fontStyle=1;fillColor=#1ba1e2;strokeColor=#006EAF;fontColor=#FFFFFF;rounded=1;" vertex="1" parent="1">
          <mxGeometry x="536" y="232" width="50" height="40" as="geometry" />
        </mxCell>
        <mxCell id="qkSMc_lfLPnd2LmG_SWH-275" value="" style="whiteSpace=wrap;html=1;aspect=fixed;fontSize=17;fontFamily=Verdana;fontStyle=1;fontColor=#AFB9C7;fillColor=#383E47;rounded=1;" vertex="1" parent="1">
          <mxGeometry x="54.5" y="431" width="40" height="40" as="geometry" />
        </mxCell>
        <mxCell id="qkSMc_lfLPnd2LmG_SWH-278" value="" style="whiteSpace=wrap;html=1;aspect=fixed;fontSize=17;fontFamily=Verdana;fontStyle=1;fontColor=#AFB9C7;fillColor=#383E47;rounded=1;" vertex="1" parent="1">
          <mxGeometry x="675" y="431" width="40" height="40" as="geometry" />
        </mxCell>
      </root>
    </mxGraphModel>
  </diagram>
</mxfile>
